<svg width="46" height="46" viewBox="0 0 46 46" fill="none" xmlns="http://www.w3.org/2000/svg">
<path fill-rule="evenodd" clip-rule="evenodd" d="M17.5551 44.8264C29.6116 47.8322 41.8214 40.4965 44.8266 28.4429L44.8264 28.4431C47.8321 16.3888 40.4961 4.17831 28.4405 1.17328C16.3878 -1.83176 4.17797 5.50443 1.17392 17.5594C-1.83278 29.6121 5.50368 41.8213 17.5551 44.8264ZM27.9731 14.1165C31.0906 15.1902 33.3705 16.7998 32.9226 19.794L32.9227 19.7938L32.9235 19.7943C32.5995 21.9862 31.3842 23.0473 29.7707 23.4193C31.9859 24.5726 33.1132 26.341 32.0394 29.407C30.7068 33.2151 27.5407 33.5363 23.33 32.7395L22.3083 36.8343L19.8389 36.2191L20.8475 32.1793C20.2073 32.0203 19.5534 31.8516 18.8796 31.6687L17.8677 35.7276L15.4013 35.1124L16.4231 31.0099C16.1858 30.9492 15.947 30.887 15.7064 30.8243C15.3622 30.7346 15.0145 30.6439 14.6626 30.5557L11.4492 29.7547L12.6752 26.9285C12.6752 26.9285 14.4946 27.4122 14.4699 27.3763C15.169 27.5494 15.4792 27.0936 15.6014 26.7898L17.2161 20.3168C17.2812 20.3324 17.3445 20.3483 17.4054 20.3635C17.4297 20.3696 17.4536 20.3756 17.4771 20.3814C17.3786 20.3418 17.2893 20.3165 17.2204 20.299L18.3724 15.6783C18.4025 15.1537 18.2217 14.4919 17.2217 14.2423C17.2603 14.2165 15.4283 13.7966 15.4283 13.7966L16.0852 11.1595L19.4904 12.0098L19.4875 12.0225C19.9994 12.1499 20.527 12.2708 21.0642 12.393L22.0762 8.33838L24.5439 8.9536L23.5522 12.9289C24.2148 13.0801 24.8815 13.2326 25.5306 13.3945L26.5151 9.44531L28.9844 10.0605L27.9731 14.1165ZM20.1625 28.8222C22.1773 29.3543 26.5808 30.5172 27.2809 27.7043H27.281C27.9982 24.8284 23.7284 23.8703 21.6444 23.4027C21.4113 23.3504 21.2055 23.3042 21.0372 23.2622L19.6812 28.6973C19.8194 28.7316 19.9813 28.7743 20.1625 28.8222ZM22.0624 20.8801C23.7421 21.3284 27.4064 22.3062 28.0446 19.7496H28.0448C28.6964 17.1348 25.1353 16.3465 23.3961 15.9615C23.2004 15.9182 23.0278 15.8799 22.8869 15.8448L21.6575 20.7741C21.7736 20.8031 21.9098 20.8394 22.0624 20.8801Z" fill="#F7931A"/>
</svg>
