<?xml version="1.0" encoding="UTF-8"?>
<svg id="Capa_2" data-name="Capa 2" xmlns="http://www.w3.org/2000/svg" viewBox="0 0 718.67 150.39">
  <defs>
    <style>
      .cls-1 {
        fill: #f4effa;
      }
    </style>
  </defs>
  <g id="Capa_1-2" data-name="Capa 1">
    <g>
      <g>
        <path class="cls-1" d="M305.67,77.7c-8.44,0-15.73,2.15-22.1,6.29v64.24h-32.45V19.91h32.45v48.93c6.95-11.09,18.13-16.72,33.28-16.72,25.42,0,39.49,13.41,39.49,43.3v52.82h-32.45v-52.82c0-11.92-6.37-17.72-18.21-17.72Z"/>
        <path class="cls-1" d="M372.08,108.75v-54.47h32.45v54.47c0,11.34,7.29,16.89,19.79,16.89,7.95,0,14.57-2.65,20.53-8.11v-63.25h32.45v93.96h-31.71l.08-15.81c-6.95,11.76-18.54,17.97-34.94,17.97-24.59,0-38.66-12.58-38.66-41.64Z"/>
        <path class="cls-1" d="M492.22,115.87v-1.16h33.78v1.16c0,9.11,5.05,14.16,20.28,14.16,18.38,0,18.38-7.37,18.38-8.94v-.41c0-4.47-3.39-6.21-16.72-8.2l-20.78-3.15c-25.17-3.81-33.86-13.25-33.86-28.56v-.5c0-17.55,16.56-28.15,51.83-28.15s52.41,11.18,52.41,33.86v1.24h-33.69v-1.24c0-9.27-5.88-13.83-19.62-13.83-11.92,0-17.22,3.39-17.22,8.53v.41c0,4.3,2.73,6.79,16.14,8.78l20.78,3.06c26.49,3.89,34.36,13.74,34.36,28.07v.58c0,18.05-17.14,28.81-52.65,28.81-37.5,0-53.4-12.09-53.4-34.52Z"/>
        <path class="cls-1" d="M668,77.7c-8.44,0-15.73,2.15-22.1,6.29v64.24h-32.45V19.91h32.45v48.93c6.95-11.09,18.13-16.72,33.28-16.72,25.42,0,39.49,13.41,39.49,43.3v52.82h-32.45v-52.82c0-11.92-6.37-17.72-18.21-17.72Z"/>
      </g>
      <g>
        <path class="cls-1" d="M180.32,129.73c-4.5,0-8.38,1.15-11.78,3.35v17.31h-17.29v-58.98h17.29v33.6c3.71-5.91,9.66-8.91,17.73-8.91,13.54,0,21.04,7.15,21.04,23.07v11.22h-17.29v-11.22c0-6.35-3.4-9.44-9.7-9.44Z"/>
        <path class="cls-1" d="M152,70.37l-28.02-40.85h0C111.74,11.7,91.21,0,67.94,0h0C30.42,0,0,30.42,0,67.94h0c0,16.48,5.87,31.59,15.63,43.36v39.09h85.37v-14.51h32.96v-58.32h14.26c3.7,0,5.88-4.14,3.79-7.19ZM97.14,74.36h0c-7.22,0-13.07-5.85-13.07-13.07h26.13c0,7.22-5.85,13.07-13.07,13.07Z"/>
      </g>
    </g>
  </g>
</svg>