<?xml version="1.0" encoding="UTF-8"?>
<svg id="Capa_2" data-name="Capa 2" xmlns="http://www.w3.org/2000/svg" viewBox="0 0 299.97 217.61">
  <defs>
    <style>
      .cls-1 {
        fill: #5932e6;
      }
    </style>
  </defs>
  <g id="Capa_1-2" data-name="Capa 1">
    <g>
      <path class="cls-1" d="M260.91,187.71c-6.51,0-12.13,1.66-17.04,4.85v25.04h-25.02v-85.34h25.02v48.62c5.36-8.55,13.98-12.89,25.66-12.89,19.59,0,30.44,10.34,30.44,33.38v16.24h-25.02v-16.24c0-9.19-4.91-13.66-14.04-13.66Z"/>
      <path class="cls-1" d="M219.94,101.82l-40.55-59.1h0C161.68,16.93,131.97,0,98.31,0h0C44.01,0,0,44.01,0,98.31h0c0,23.85,8.5,45.72,22.62,62.74v56.56h123.52v-20.99h47.69v-84.39h20.63c5.35,0,8.51-6,5.48-10.41ZM140.55,107.6h0c-10.44,0-18.91-8.46-18.91-18.91h37.81c0,10.44-8.46,18.91-18.91,18.91Z"/>
    </g>
  </g>
</svg>