<svg width="46" height="46" viewBox="0 0 46 46" fill="none" xmlns="http://www.w3.org/2000/svg">
<path fill-rule="evenodd" clip-rule="evenodd" d="M23 45.5C29.1242 45.5 34.6769 43.0533 38.7339 39.084L36.2113 36.9054C33.3602 39.6038 29.7422 41.3744 25.838 41.9593C21.439 42.6183 16.949 41.7313 13.1329 39.4494C12.7415 39.2154 12.3597 38.9682 11.9881 38.7084L9.75841 41.1929C13.4736 43.9016 18.0502 45.5 23 45.5ZM7.09416 38.914C3.02008 34.8419 0.5 29.2153 0.5 23C0.5 18.1694 2.02231 13.6943 4.61336 10.0283L7.23209 12.2725C6.30061 13.6277 5.507 15.1033 4.91001 16.6522L7.75031 16.6522C9.51502 13.2689 12.6846 9.90895 16.0716 8.30121C19.4586 6.69347 23.2971 6.30983 26.9331 7.21566C30.569 8.12148 33.7775 10.2607 36.0118 13.2689C38.2461 16.2771 39.3679 19.9681 39.1862 23.7129C39.0045 27.4578 37.5305 31.0249 35.0153 33.8063C32.5001 36.5878 29.0993 38.4116 25.3925 38.9669C21.6856 39.5223 17.902 38.7748 14.6863 36.8519C11.4707 34.929 9.39573 32.9506 7.75031 29.4449H4.91001C5.85768 32.0887 7.36566 34.4729 9.30928 36.4457L7.09416 38.914ZM45.5 23C45.5 28.0415 43.8419 32.6958 41.0412 36.4472L38.5265 34.2754C40.7366 31.2485 42.0243 27.6288 42.2073 23.8571C42.4229 19.413 41.0916 15.0329 38.4401 11.463C37.92 10.7628 37.3554 10.1022 36.7513 9.48459L38.9185 7.09868C42.9851 11.1697 45.5 16.7912 45.5 23ZM34.0804 7.21219L36.2557 4.8174C32.5379 2.10241 27.9561 0.5 23 0.5C16.6646 0.5 10.9407 3.11846 6.85161 7.33219L9.43796 9.54863C11.071 7.83002 12.9147 6.45171 14.7768 5.56779C18.7962 3.65986 23.3514 3.20459 27.6663 4.27955C29.9843 4.85703 32.1558 5.85693 34.0804 7.21219ZM22.2177 15.4687C24.6279 14.8912 26.7112 14.986 27.6839 17.0986C28.3833 18.6424 28.0665 19.8173 27.1792 20.728C29.0748 20.5675 30.5033 21.2491 31.1088 23.6585C31.8746 26.6748 30.0217 28.1773 27.0453 29.3989L28.116 32.4163L26.3312 33.0441L25.2605 30.0266C25.0655 30.0919 24.8638 30.1659 24.657 30.2417L24.6569 30.2417C24.3775 30.3442 24.0888 30.4501 23.7949 30.5426L24.8656 33.56L23.0827 34.1857L22.012 31.1682L18.4152 32.3463L17.9367 30.0354C17.9367 30.0354 18.7914 29.753 19.2666 29.5866C19.762 29.4103 19.7816 28.9955 19.7334 28.7433L18.0157 23.9084L16.814 20.4602C16.6332 20.1198 16.2438 19.7711 15.5096 20.0141C15.5351 19.9632 14.2019 20.4734 14.2019 20.4734L13.4836 18.454L17.1419 17.1661L16.0932 14.211L17.9354 13.5631L18.9841 16.5182C19.3452 16.381 19.7066 16.2578 20.0713 16.1335L20.0714 16.1335L20.0714 16.1335L20.072 16.1333C20.1801 16.0964 20.2886 16.0594 20.3974 16.022L19.3487 13.0669L21.1428 12.4359L22.2177 15.4687ZM20.7737 22.2091L19.4837 18.5562C21.3742 17.8943 23.8691 17.0209 24.5289 18.8892C25.1886 20.7575 22.2271 21.8069 20.7737 22.2091ZM23.0041 28.1036L23.0032 28.1039C22.9446 28.1217 22.8907 28.1381 22.8419 28.153L21.5597 24.5221C21.6725 24.4837 21.813 24.4324 21.9754 24.3731C23.4707 23.8272 26.8224 22.6036 27.4865 24.5382C28.2079 26.5237 24.363 27.691 23.0041 28.1036ZM6.26143 26.5213L6.695 26.5368C7.39181 26.5213 8.13507 26.2434 8.90931 25.7184C9.18803 25.5176 9.46675 25.2551 9.74548 24.9309C10.0242 24.6066 10.2255 24.3132 10.3649 24.0816L10.5816 23.7264L9.97775 26.6449L3.39677 26.6294L7.82538 20.3448C8.18153 19.8507 8.08862 19.6036 7.57763 19.6036H7.206C6.57113 19.5882 5.84335 19.8661 5.02266 20.4374C4.58909 20.7308 4.06261 21.2249 3.81486 21.4874L3.62904 21.6882L4.20197 19.4801L10.4268 19.4955C7.74796 23.2323 6.27692 25.3169 5.99819 25.7493C5.6885 26.1971 5.76592 26.5213 6.26143 26.5213Z" fill="#D9DEEF"/>
</svg>
