<svg width="55" height="55" viewBox="0 0 55 55" fill="none" xmlns="http://www.w3.org/2000/svg">
<path d="M55 27.5C55 42.6878 42.6878 55 27.5 55C12.3122 55 1.52588e-05 42.6878 1.52588e-05 27.5C1.52588e-05 12.3122 12.3122 -9.53674e-06 27.5 -9.53674e-06C42.6878 -9.53674e-06 55 12.3122 55 27.5Z" fill="url(#paint0_radial_1_81)"/>
<path d="M49.8113 27.5C49.8113 39.8222 39.8222 49.8113 27.5 49.8113C15.1778 49.8113 5.18866 39.8222 5.18866 27.5C5.18866 15.1778 15.1778 5.18867 27.5 5.18867C39.8222 5.18867 49.8113 15.1778 49.8113 27.5Z" fill="url(#paint1_radial_1_81)"/>
<path d="M44.6227 27.5C44.6227 36.9566 36.9566 44.6226 27.5 44.6226C18.0435 44.6226 10.3774 36.9566 10.3774 27.5C10.3774 18.0434 18.0435 10.3773 27.5 10.3773C36.9566 10.3773 44.6227 18.0434 44.6227 27.5Z" fill="url(#paint2_radial_1_81)"/>
<path d="M39.434 27.5C39.434 34.0909 34.091 39.434 27.5 39.434C20.9091 39.434 15.5661 34.0909 15.5661 27.5C15.5661 20.909 20.9091 15.566 27.5 15.566C34.091 15.566 39.434 20.909 39.434 27.5Z" fill="url(#paint3_radial_1_81)"/>
<path d="M10.4488 16.1273L28.9222 16.1273C29.8538 16.1273 30.7477 16.9072 31.4067 18.2956L35.3118 26.5223L16.7373 26.5223C15.9517 26.5223 15.197 25.8753 14.6348 24.7201L10.4492 16.1273L10.4488 16.1273Z" fill="white"/>
<path d="M18.001 33.8627L36.4743 33.8627C37.4059 33.8627 38.2999 34.6426 38.9589 36.0309L42.8639 44.2576L24.2894 44.2576C23.5038 44.2576 22.7492 43.6106 22.1869 42.4555L18.0014 33.8627L18.001 33.8627Z" fill="white"/>
<path d="M18.0008 33.8623L23.1708 27.7254C24.1529 26.5646 24.672 26.4265 26.2088 26.4427L35.3147 26.5389L28.3533 33.8623L18.0008 33.8623Z" fill="white"/>
<path d="M35.3146 26.5401L30.1445 32.677C29.1624 33.8378 28.6433 33.976 27.1066 33.9597L18.0006 33.8635L29.7745 22.3431C30.1189 21.637 27.3992 16.0678 28.684 16.0688L35.3146 26.5401Z" fill="white"/>
<path d="M44.6018 15.7475C44.6018 18.4829 42.3843 20.7004 39.6488 20.7004C36.9134 20.7004 34.6959 18.4829 34.6959 15.7475C34.6959 13.012 36.9134 10.7945 39.6488 10.7945C42.3843 10.7945 44.6018 13.012 44.6018 15.7475Z" fill="white"/>
<path d="M43.6673 15.7475C43.6673 17.9668 41.8682 19.7659 39.6488 19.7659C37.4295 19.7659 35.6304 17.9668 35.6304 15.7475C35.6304 13.5282 37.4295 11.729 39.6488 11.729C41.8682 11.729 43.6673 13.5282 43.6673 15.7475Z" fill="white"/>
<path d="M42.7328 15.7475C42.7328 17.4507 41.3521 18.8314 39.6489 18.8314C37.9457 18.8314 36.5649 17.4507 36.5649 15.7475C36.5649 14.0443 37.9457 12.6636 39.6489 12.6636C41.3521 12.6636 42.7328 14.0443 42.7328 15.7475Z" fill="white"/>
<path d="M41.7982 15.7475C41.7982 16.9346 40.8359 17.8969 39.6488 17.8969C38.4618 17.8969 37.4995 16.9346 37.4995 15.7475C37.4995 14.5604 38.4618 13.5981 39.6488 13.5981C40.8359 13.5981 41.7982 14.5604 41.7982 15.7475Z" fill="white"/>
<defs>
<radialGradient id="paint0_radial_1_81" cx="0" cy="0" r="1" gradientUnits="userSpaceOnUse" gradientTransform="translate(27.5 27.5) rotate(90) scale(45.0185 46.4902)">
<stop stop-color="#FF6E4E"/>
<stop offset="1" stop-color="#F7931A"/>
<stop offset="1" stop-color="#FFD028"/>
</radialGradient>
<radialGradient id="paint1_radial_1_81" cx="0" cy="0" r="1" gradientUnits="userSpaceOnUse" gradientTransform="translate(27.5 27.5) rotate(90) scale(45.0185 46.4902)">
<stop stop-color="#FF6E4E"/>
<stop offset="1" stop-color="#F7931A"/>
<stop offset="1" stop-color="#FFD028"/>
</radialGradient>
<radialGradient id="paint2_radial_1_81" cx="0" cy="0" r="1" gradientUnits="userSpaceOnUse" gradientTransform="translate(27.5 27.5) rotate(90) scale(45.0185 46.4902)">
<stop stop-color="#FF6E4E"/>
<stop offset="1" stop-color="#F7931A"/>
<stop offset="1" stop-color="#FFD028"/>
</radialGradient>
<radialGradient id="paint3_radial_1_81" cx="0" cy="0" r="1" gradientUnits="userSpaceOnUse" gradientTransform="translate(27.5 27.5) rotate(90) scale(45.0185 46.4902)">
<stop stop-color="#FF6E4E"/>
<stop offset="1" stop-color="#F7931A"/>
<stop offset="1" stop-color="#FFD028"/>
</radialGradient>
</defs>
</svg>
