<svg width="1335" height="281" viewBox="0 0 1335 281" fill="none" xmlns="http://www.w3.org/2000/svg">
<path d="M402.526 207.753L410.627 208.043C423.648 207.753 437.537 202.545 452.004 192.707C457.213 188.946 462.421 184.027 467.629 177.95C472.838 171.874 476.599 166.376 479.203 162.036L483.254 155.381L471.97 210.068L348.996 209.779L431.75 92.0134C438.405 82.7542 436.669 78.1246 427.12 78.1246H420.176C408.313 77.8352 394.713 83.0435 379.378 93.7495C371.276 99.2471 361.438 108.506 356.808 113.425L353.336 117.187L364.042 75.8098L480.361 76.0991C430.303 146.122 402.815 185.184 397.607 193.286C391.82 201.677 393.266 207.753 402.526 207.753Z" fill="white"/>
<path d="M570.771 189.814C593.919 190.103 609.255 181.423 617.067 163.194C615.042 177.372 608.676 188.946 597.392 198.494C586.396 208.043 572.797 212.383 556.304 212.094C536.339 211.515 520.424 204.86 508.272 191.839C496.119 178.818 489.753 162.325 489.464 142.65C489.175 115.451 499.591 94.9069 521.293 81.3074C535.471 72.9163 550.517 69.7334 566.431 71.7589C595.656 75.2311 616.778 97.8004 615.91 132.522H520.135C520.135 166.376 539.811 189.524 570.771 189.814ZM540.679 80.4394C533.445 85.3583 527.948 92.8814 524.765 103.009C521.582 113.136 520.135 122.106 520.135 130.208C540.679 130.208 553.7 129.918 559.776 129.05C570.482 127.603 578.584 124.131 583.503 118.344C588.132 114.004 590.158 107.06 589.579 98.0897C589.29 88.8305 585.818 82.1755 579.163 77.8352C569.614 70.8908 553.41 72.0482 540.679 80.4394Z" fill="white"/>
<path d="M673.961 71.1801V182.869C673.961 194.443 678.591 202.545 684.667 205.149C691.322 207.753 693.637 208.332 696.82 208.332H618.984C622.167 208.332 624.771 207.753 630.848 205.149C636.924 202.545 641.264 194.443 641.264 182.869V111.4C641.264 95.4856 629.112 97.8004 627.086 98.6684L673.961 71.1801ZM761.055 182.869C761.055 194.443 765.396 202.545 771.472 205.149C778.127 207.753 780.442 208.332 783.625 208.332H705.789C708.972 208.332 711.576 207.753 717.653 205.149C723.729 202.545 728.069 194.443 728.069 182.869V141.492C728.069 130.786 728.069 122.974 727.78 118.344C727.491 109.085 724.597 98.9578 718.521 95.1962C713.602 91.4347 706.658 90.5666 697.977 92.5921C689.297 94.6175 681.773 98.9578 675.697 105.613C682.063 96.9323 690.454 89.1199 700.87 82.1755C711.287 75.2311 722.572 72.3376 734.435 73.2056C747.456 73.2056 754.69 82.7542 757.872 91.1453C759.03 93.7495 759.898 97.511 760.187 102.43C760.477 107.349 760.766 111.4 760.766 114.293C761.055 116.897 761.055 121.527 761.055 127.603V182.869Z" fill="white"/>
<path d="M881.231 72.0482C894.83 72.3376 900.617 82.4648 900.617 91.4347C900.617 100.405 895.698 108.796 885.282 109.085C881.231 109.085 878.048 108.217 875.444 106.77C870.814 103.587 866.184 96.3536 864.159 94.9069C854.61 87.9625 845.062 91.724 835.513 105.902V185.184C835.513 195.89 840.432 203.124 847.377 205.728C854.321 208.043 857.215 208.332 860.397 208.332H778.222C781.405 208.332 784.298 208.043 790.953 205.728C797.898 203.124 802.817 195.89 802.817 185.184V111.4C802.817 100.115 797.319 96.3536 789.507 97.8004L835.513 71.1801V101.851C845.062 83.6222 863.87 71.1802 881.231 72.0482Z" fill="white"/>
<path d="M973.651 211.226C960.92 212.094 948.188 210.068 933.142 203.124C918.385 196.179 905.943 180.555 901.313 158.275C896.973 138.599 899.577 120.948 909.126 105.034C918.674 89.1199 932.563 78.7033 951.371 73.7843C973.362 68.2866 992.459 70.8908 1008.95 81.5968C1025.44 92.0134 1034.7 109.085 1037.31 133.101C1039.33 154.802 1034.13 173.031 1021.68 187.788C1009.53 202.256 993.616 210.068 973.651 211.226ZM1000.85 126.446C997.378 108.796 991.012 94.6175 982.042 84.2009C973.072 73.7843 962.945 71.4695 951.66 77.2565C943.269 81.3074 937.772 91.4347 935.457 107.638C933.142 123.553 934.01 139.467 937.771 155.092C941.822 175.057 948.188 188.946 956.869 197.337C965.838 205.728 974.519 208.911 982.91 207.175C990.144 205.728 995.352 200.23 999.114 191.26C1006.35 173.031 1004.61 149.883 1000.85 126.446Z" fill="white"/>
<path d="M1075.96 143.807C1080.59 170.717 1099.4 188.367 1126.31 189.235C1148.3 190.103 1166.82 181.133 1175.79 162.325C1173.19 176.793 1166.53 188.946 1155.82 199.073C1145.12 208.911 1131.52 213.83 1114.45 213.54C1095.35 213.54 1079.15 207.464 1066.13 195.022C1053.1 182.58 1046.45 165.798 1046.16 144.675C1045.58 93.1708 1092.46 63.6571 1135.28 73.7843C1145.41 75.8098 1153.8 79.8607 1161.03 86.5157C1168.27 92.8814 1172.32 100.405 1172.61 108.796C1172.9 121.238 1165.66 128.761 1155.25 127.893C1143.38 127.603 1137.31 116.608 1140.78 104.745C1145.7 84.7796 1139.91 74.6524 1122.84 74.0737C1106.35 73.495 1093.61 80.15 1084.64 94.3282C1075.67 108.217 1072.78 124.71 1075.96 143.807Z" fill="white"/>
<path d="M1232.3 0L1232.01 182.869C1232.01 207.753 1250.53 208.332 1252.55 208.332H1174.72C1177.03 208.332 1199.31 207.753 1199.31 182.869V41.6664C1199.31 30.0924 1191.79 24.3054 1183.69 28.067L1232.3 0ZM1232.3 147.569L1264.42 110.821C1271.07 103.587 1272.23 96.0643 1268.47 88.2518C1264.71 80.4394 1257.18 76.3885 1246.48 76.0991H1318.81C1314.18 76.9672 1306.37 80.7287 1295.67 87.3838C1284.96 94.0388 1275.99 101.273 1268.76 109.374L1261.81 116.897C1258.05 123.553 1258.92 125.578 1263.84 133.39L1269.91 142.65C1274.25 148.726 1278.31 154.802 1282.36 160.879L1296.24 179.686C1301.45 186.342 1305.5 191.26 1308.69 194.154C1315.92 201.966 1326.05 206.596 1330.68 207.753L1334.44 208.332H1260.65C1268.76 208.043 1271.65 201.388 1265.86 192.129C1250.53 168.981 1240.98 155.67 1237.8 152.488C1234.9 149.015 1233.17 147.279 1232.3 147.569Z" fill="white"/>
<path d="M283.289 140.761C283.289 140.761 283.289 140.761 283.289 140.754C283.289 139.99 283.296 139.226 283.289 138.455C283.289 138.455 283.289 138.455 283.289 138.448C283.289 138.427 283.289 138.413 283.289 138.393V138.379C283.289 137.768 283.275 137.177 283.268 136.594C283.247 135.538 283.219 134.525 283.171 133.559C283.171 133.559 283.171 133.552 283.171 133.545C283.171 133.531 283.171 133.518 283.171 133.504C283.171 133.504 283.171 133.504 283.171 133.497C283.136 132.698 283.101 131.9 283.053 131.115C283.004 130.323 282.949 129.531 282.893 128.705C282.768 127.038 282.608 125.4 282.435 123.844C282.344 123.038 282.247 122.226 282.15 121.49C282.15 121.49 282.15 121.476 282.15 121.469C282.15 121.455 282.15 121.448 282.15 121.434C282.08 120.906 282.011 120.393 281.942 119.879C281.865 119.316 281.782 118.761 281.699 118.205C281.615 117.663 281.532 117.122 281.442 116.587C281.31 115.781 281.171 114.983 281.032 114.205C280.955 113.781 280.879 113.365 280.803 112.955C280.768 112.768 280.733 112.587 280.699 112.406C280.657 112.191 280.615 111.969 280.574 111.754C280.532 111.545 280.49 111.344 280.449 111.143C280.407 110.955 280.372 110.768 280.33 110.587C280.289 110.386 280.247 110.191 280.199 109.99C280.164 109.83 280.129 109.67 280.094 109.518C280.094 109.49 280.08 109.462 280.074 109.434C280.074 109.42 280.074 109.399 280.067 109.386C280.06 109.344 280.053 109.302 280.039 109.268C279.879 108.58 279.726 107.886 279.567 107.191C279.539 107.052 279.497 106.879 279.442 106.684C279.442 106.656 279.428 106.629 279.421 106.608C279.275 106.004 279.122 105.399 278.962 104.761C278.949 104.719 278.942 104.677 278.935 104.636C278.935 104.629 278.935 104.615 278.928 104.608C278.928 104.608 278.928 104.608 278.928 104.601C278.928 104.587 278.921 104.573 278.914 104.559C278.539 103.059 278.115 101.504 277.65 99.9342C277.643 99.9064 277.629 99.8717 277.622 99.8439C277.622 99.83 277.615 99.8162 277.608 99.8092C277.608 99.8023 277.608 99.7884 277.601 99.7814L277.567 99.6564L277.518 99.5037C277.518 99.5037 277.511 99.4689 277.504 99.455V99.4273C277.344 98.9064 277.185 98.3925 277.032 97.8787C277.032 97.8787 277.032 97.8717 277.032 97.8648C277.018 97.8162 277.004 97.7675 276.983 97.7189C276.823 97.1981 276.664 96.6773 276.49 96.1634C276.455 96.0523 276.421 95.9412 276.379 95.83C276.379 95.8231 276.379 95.8092 276.372 95.8023C276.324 95.6425 276.268 95.4898 276.212 95.33L276.185 95.2398C276.185 95.2398 276.185 95.2328 276.185 95.2259C276.171 95.1773 276.15 95.1217 276.136 95.0731C276.053 94.8161 275.962 94.5592 275.879 94.3023C275.879 94.3023 275.879 94.2884 275.879 94.2814C275.803 94.0523 275.726 93.8231 275.643 93.587L275.629 93.5453L275.58 93.4064C275.504 93.1842 275.428 92.955 275.344 92.7259C275.337 92.6981 275.33 92.6773 275.317 92.6495C275.289 92.5731 275.261 92.5036 275.24 92.4273C275.192 92.2814 275.136 92.1356 275.087 91.9898L275.06 91.9134L274.9 91.4828L274.525 90.455C274.525 90.455 274.525 90.4411 274.518 90.4342C274.497 90.3786 274.476 90.3231 274.455 90.2606L274.317 89.8786C274.282 89.7814 274.247 89.6842 274.205 89.5939L274.171 89.5106C274.171 89.5106 274.136 89.4273 274.136 89.4134C274.011 89.08 273.879 88.7536 273.747 88.4064C273.699 88.2814 273.65 88.1564 273.601 88.0384C273.594 88.0175 273.587 87.9967 273.58 87.9759C273.469 87.6911 273.358 87.4134 273.247 87.1286C273.247 87.1217 273.24 87.1078 273.233 87.1009C273.233 87.087 273.219 87.0731 273.219 87.0592C273.053 86.6356 272.886 86.2189 272.705 85.8022C272.699 85.7814 272.685 85.7606 272.678 85.7397C272.671 85.7189 272.664 85.6981 272.65 85.6772C272.65 85.6703 272.643 85.6634 272.636 85.6495C272.636 85.6425 272.629 85.6286 272.622 85.6217C272.323 84.8925 272.011 84.1634 271.699 83.4411C271.699 83.4272 271.685 83.4133 271.678 83.3995L271.657 83.3578C271.511 83.0245 271.358 82.6842 271.205 82.3439C271.018 81.9134 270.83 81.4828 270.629 81.0522C270.574 80.9272 270.518 80.8022 270.455 80.6842C270.323 80.3786 270.178 80.08 270.039 79.7814C269.928 79.5314 269.803 79.2745 269.685 79.0245C269.615 78.8717 269.546 78.7259 269.469 78.58C269.449 78.5384 269.428 78.4967 269.407 78.455L269.011 77.6356C269.011 77.6356 268.99 77.5939 268.976 77.5731L268.942 77.4967C268.83 77.2745 268.719 77.0522 268.608 76.83C268.504 76.6217 268.407 76.4203 268.303 76.2189C268.101 75.8092 267.893 75.3995 267.678 74.9897C267.615 74.8717 267.553 74.7467 267.49 74.6286C267.449 74.5522 267.414 74.4758 267.372 74.3995C267.344 74.3508 267.317 74.2953 267.289 74.2467C267.289 74.2397 267.282 74.2328 267.275 74.2189C267.275 74.212 267.268 74.205 267.261 74.1911C267.254 74.1772 267.24 74.1564 267.233 74.1425L266.879 73.4758L266.865 73.4481C266.865 73.4481 266.844 73.4133 266.837 73.3925C266.782 73.2953 266.733 73.1911 266.678 73.0939C266.511 72.7745 266.33 72.4481 266.157 72.1286C266.136 72.0939 266.115 72.0522 266.094 72.0106C266.094 72.0106 266.094 72.0106 266.094 72.0036C266.067 71.9481 266.046 71.9133 266.018 71.8647C265.99 71.8161 265.962 71.7536 265.935 71.712C265.789 71.4411 265.636 71.1703 265.483 70.9064C265.442 70.837 265.407 70.7675 265.365 70.6981C265.303 70.587 265.254 70.4897 265.205 70.4064C265.115 70.2397 265.018 70.0661 264.921 69.8995L264.83 69.7467C264.796 69.6842 264.768 69.6425 264.733 69.5731L264.698 69.5106C264.657 69.4342 264.615 69.3578 264.567 69.2814C264.553 69.2606 264.539 69.2397 264.525 69.212C264.518 69.1981 264.511 69.1842 264.504 69.1772C264.178 68.6147 263.851 68.0522 263.518 67.4897C263.185 66.9342 262.844 66.3717 262.504 65.8161C262.455 65.7258 262.393 65.6356 262.344 65.5453C262.303 65.4758 262.268 65.4133 262.226 65.3439C262.067 65.0869 261.907 64.83 261.74 64.5731C261.699 64.5036 261.643 64.4133 261.573 64.3092C261.532 64.2397 261.483 64.1703 261.442 64.1008C261.407 64.0522 261.379 64.0036 261.344 63.9481C261.185 63.6842 261.018 63.4203 260.844 63.1703L260.587 62.7744C260.372 62.4342 260.15 62.0939 259.928 61.7675C259.921 61.7536 259.907 61.7397 259.9 61.7258C259.844 61.6356 259.782 61.5383 259.712 61.4411C259.587 61.2536 259.462 61.0661 259.33 60.8717C259.33 60.8717 259.323 60.8578 259.317 60.8508C259.282 60.8022 259.247 60.7536 259.219 60.6981C259.192 60.6564 259.164 60.6147 259.136 60.58C259.08 60.4967 259.025 60.4203 258.969 60.3369C258.928 60.2814 258.893 60.2189 258.851 60.1633C258.74 59.9967 258.622 59.8231 258.504 59.6564C258.497 59.6425 258.483 59.6286 258.476 59.6147C258.462 59.5869 258.442 59.5661 258.428 59.5383C258.254 59.2883 258.087 59.0383 257.907 58.7883C257.886 58.7606 257.865 58.7328 257.844 58.705C257.775 58.6078 257.712 58.5175 257.643 58.4203C257.622 58.3925 257.608 58.3647 257.587 58.3369L257.143 57.705C257.108 57.6564 257.08 57.6147 257.046 57.5661L256.476 56.7883L256.414 56.705C256.414 56.705 256.379 56.6494 256.358 56.6286C256.358 56.6286 256.358 56.6286 256.358 56.6217C256.198 56.3925 256.032 56.1703 255.865 55.9411C255.865 55.9411 255.865 55.9342 255.858 55.9272C255.712 55.7258 255.567 55.5314 255.421 55.3369L255.212 55.0592C255.004 54.7675 254.782 54.4828 254.567 54.1981C254.546 54.1703 254.518 54.1356 254.497 54.1078C254.497 54.1078 254.49 54.1008 254.483 54.0939C254.483 54.0939 254.483 54.0939 254.476 54.0869C253.942 53.3925 253.4 52.6911 252.844 51.9758C252.518 51.5661 252.198 51.1633 251.865 50.7536L251.796 50.6633C251.796 50.6633 251.775 50.6425 251.768 50.6286C251.629 50.455 251.49 50.2814 251.351 50.1217C251.226 49.9689 251.101 49.8161 250.976 49.6633C250.942 49.6217 250.907 49.58 250.879 49.5453C250.74 49.3786 250.608 49.2119 250.469 49.0453C250.407 48.9619 250.337 48.8855 250.268 48.8022C250.233 48.7605 250.198 48.7189 250.164 48.6772C250.087 48.5869 250.011 48.4897 249.935 48.3994C249.935 48.3994 249.935 48.3994 249.928 48.3925C249.921 48.3786 249.907 48.3717 249.9 48.3578C249.9 48.3508 249.886 48.3439 249.879 48.3369C249.733 48.1633 249.594 47.9967 249.448 47.83C249.4 47.7744 249.351 47.7189 249.31 47.6633C249.303 47.6564 249.296 47.6494 249.289 47.6355C249.254 47.5939 249.219 47.5522 249.178 47.5105C249.06 47.3786 248.948 47.2467 248.83 47.1078C248.817 47.0939 248.81 47.0869 248.796 47.073C248.712 46.9689 248.629 46.8786 248.567 46.8092C248.15 46.323 247.719 45.8369 247.289 45.3647C247.164 45.2189 247.039 45.073 246.914 44.9411C246.886 44.9133 246.865 44.8855 246.837 44.8578C246.594 44.5869 246.351 44.3161 246.101 44.0522C245.948 43.8786 245.789 43.7119 245.636 43.5453C245.372 43.2605 245.108 42.9758 244.872 42.7328C244.858 42.7189 244.844 42.705 244.83 42.6842C244.817 42.6703 244.803 42.6564 244.789 42.6425C244.664 42.5105 244.539 42.3716 244.407 42.2397C244.303 42.1286 244.198 42.0175 244.087 41.9064C243.997 41.8091 243.907 41.7189 243.817 41.6286C243.775 41.58 243.726 41.5314 243.685 41.4897L243.629 41.4342L242.99 40.7675C242.99 40.7675 242.928 40.705 242.9 40.6703C242.865 40.6355 242.837 40.6078 242.803 40.573L242.421 40.1911C242.004 39.7675 241.587 39.3439 241.157 38.9272C241.129 38.8994 241.101 38.8786 241.073 38.8508C241.073 38.8508 241.073 38.8508 241.067 38.8439C241.06 38.8369 241.053 38.83 241.046 38.823C240.976 38.7536 240.9 38.6841 240.83 38.6147C240.803 38.5869 240.782 38.5661 240.754 38.5383C240.754 38.5383 240.747 38.5314 240.74 38.5244C240.06 37.8578 239.372 37.198 238.664 36.5383L237.525 35.4828C237.087 35.08 236.657 34.698 236.233 34.3161C235.358 33.5383 234.518 32.7953 233.678 32.0869C233.622 32.0383 233.56 31.9897 233.504 31.9411C233.198 31.6841 232.893 31.4272 232.587 31.1703C232.323 30.948 232.06 30.7397 231.796 30.5175C231.56 30.323 231.323 30.1286 231.087 29.9411L230.935 29.8161C230.622 29.5591 230.303 29.2952 230.004 29.0661C228.289 27.7119 226.698 26.5036 225.15 25.3786C225.129 25.3647 225.108 25.3508 225.094 25.3369L224.698 25.0522C224.4 24.8369 224.094 24.6216 223.83 24.4341C222.636 23.5869 221.4 22.7397 220.046 21.8508C219.532 21.5036 219.011 21.1633 218.483 20.83C218.442 20.8022 218.407 20.7814 218.365 20.7536C217.9 20.455 217.435 20.1564 216.962 19.8716C216.567 19.6286 216.178 19.3855 215.83 19.1702C214.733 18.4966 213.615 17.8369 212.504 17.198C211.969 16.8925 211.428 16.5869 210.879 16.2744C210.351 15.9827 209.816 15.6841 209.233 15.3716C209.178 15.3369 209.115 15.3091 209.06 15.2813C208.879 15.1841 208.698 15.0869 208.518 14.9897C208.407 14.9272 208.296 14.8716 208.185 14.8091C207.983 14.705 207.789 14.6008 207.587 14.4966C207.476 14.4341 207.358 14.3786 207.247 14.3161C207.053 14.2188 206.872 14.1216 206.691 14.0313C206.587 13.9758 206.483 13.9202 206.379 13.8716C206.108 13.7327 205.851 13.6008 205.608 13.4827C205.58 13.4688 205.546 13.455 205.511 13.4411C192.594 6.96884 178.803 2.51745 164.525 0.204946C161.08 -0.35061 157.636 1.21189 155.782 4.17023C147.976 16.6425 142.615 30.1147 139.678 43.9689C136.844 31.9619 132.171 20.323 125.691 9.41329C124.837 7.97579 123.928 6.51745 122.907 4.96189C120.962 1.98273 117.393 0.496613 113.907 1.20495C99.8511 4.06606 86.3442 9.04523 73.7608 16.0036C73.5942 16.0939 73.4205 16.1911 73.2539 16.2952L73.1914 16.33C72.2816 16.8369 71.4553 17.3091 70.6705 17.7675C70.5872 17.8161 70.5108 17.8577 70.4344 17.9064C70.3303 17.9689 70.2261 18.0314 70.1219 18.0869C70.0594 18.1216 69.9969 18.1564 69.9414 18.198C69.2608 18.6008 68.5941 19.0105 67.9622 19.3994C67.6497 19.5869 67.3511 19.7744 67.0594 19.9619C66.0247 20.6077 65.0733 21.2189 64.1705 21.823C64.0247 21.9202 63.8789 22.0175 63.733 22.1077C63.5803 22.205 63.4275 22.3091 63.2747 22.4064C63.2122 22.448 63.1566 22.4827 63.0941 22.5244C62.5941 22.8577 62.1011 23.1911 61.615 23.5314C61.4969 23.6077 61.3789 23.6911 61.2677 23.7744C60.6497 24.205 60.0386 24.6355 59.4275 25.073C59.1289 25.2814 58.8441 25.4966 58.5525 25.7119C58.3719 25.8439 58.1844 25.9758 58.0039 26.1147C57.9066 26.1841 57.8164 26.2536 57.7191 26.323C57.4344 26.5314 57.1566 26.7397 56.9066 26.9272C55.6844 27.8439 54.5594 28.7189 53.483 29.5939C53.0108 29.9758 52.5316 30.3577 52.0594 30.7466C51.8997 30.8716 51.7469 31.0036 51.6011 31.1286C51.4344 31.2675 51.2608 31.4133 51.0941 31.5591C50.6219 31.948 50.1566 32.3439 49.6913 32.7466C49.1566 33.198 48.6219 33.6703 48.0802 34.1494L47.5872 34.5939C47.0525 35.073 46.5177 35.5591 46.0455 36.0036C45.4483 36.5522 44.865 37.1078 44.2816 37.6633C43.7261 38.1911 43.1775 38.7258 42.6358 39.2675C42.6358 39.2675 42.6358 39.2675 42.6288 39.2744C42.5177 39.3786 42.4205 39.4758 42.3372 39.5591C41.8719 40.0244 41.4066 40.4966 40.9483 40.9619C40.9344 40.9758 40.8788 41.0383 40.858 41.0522C40.4205 41.5036 39.983 41.9619 39.5524 42.4203C39.5316 42.4411 39.5108 42.455 39.4969 42.4758C39.3788 42.6008 39.2538 42.7258 39.1358 42.8647C38.9969 43.0105 38.858 43.1564 38.7261 43.3022C38.4622 43.58 38.2052 43.8578 37.9483 44.1425C37.9274 44.1633 37.9136 44.1842 37.8927 44.198C37.7469 44.3508 37.6011 44.5105 37.4622 44.6703C37.3927 44.7467 37.3163 44.823 37.2469 44.9064C37.1983 44.9619 37.1427 45.0244 37.0802 45.0869C37.0038 45.1703 36.9344 45.2536 36.858 45.3369C36.8441 45.3578 36.8233 45.3786 36.8024 45.3994C36.8024 45.3994 36.7886 45.4133 36.7886 45.4203C36.5524 45.6842 36.3163 45.948 36.0872 46.2119C35.9622 46.3439 35.8441 46.4758 35.733 46.6147C35.4969 46.8786 35.2677 47.1425 35.0455 47.4064C34.8302 47.6494 34.6219 47.8925 34.4066 48.1564C34.2816 48.3022 34.1497 48.455 34.0316 48.6008C33.9969 48.6355 33.9691 48.6703 33.9413 48.7119C33.9066 48.7536 33.8788 48.7883 33.8441 48.83C33.5941 49.1286 33.3441 49.4272 33.1011 49.7258C33.0455 49.7883 32.9899 49.8578 32.9413 49.9203C32.8858 49.9828 32.8302 50.0522 32.7816 50.1147C32.5455 50.3994 32.3094 50.6842 32.0872 50.9689C31.9622 51.1217 31.8372 51.2744 31.7122 51.4342L31.5941 51.58C31.4899 51.7119 31.3788 51.8439 31.2747 51.9828C31.1705 52.1078 31.0663 52.2397 30.9622 52.3786C30.9344 52.4133 30.9066 52.448 30.8788 52.4828C30.6635 52.7605 30.4483 53.0383 30.233 53.3092C30.0941 53.4828 29.9691 53.6494 29.8302 53.83L29.8024 53.8647C29.3094 54.5036 28.8233 55.1494 28.3441 55.8022C28.3094 55.8508 28.2747 55.8994 28.233 55.955C28.1219 56.1078 28.0108 56.2675 27.8997 56.4203C27.7469 56.6356 27.5872 56.8439 27.4344 57.0592C27.233 57.33 27.0316 57.6147 26.8302 57.8994L26.5733 58.2606C26.3024 58.6494 26.0316 59.0383 25.7608 59.4272C25.6844 59.5314 25.608 59.6425 25.5316 59.7536C25.2885 60.1078 25.0524 60.4619 24.8094 60.8231C24.6913 61.0036 24.5663 61.1842 24.4483 61.3647L24.2747 61.6217C24.2399 61.6772 24.2052 61.7258 24.1705 61.7814L24.0038 62.0453C23.7538 62.4203 23.5038 62.8161 23.2538 63.205C22.726 64.0245 22.2052 64.8508 21.6844 65.6981C21.2885 66.3439 20.8927 66.9897 20.5108 67.6356C20.4691 67.705 20.4135 67.7883 20.358 67.8856C20.3163 67.955 20.2816 68.0244 20.233 68.1008C20.1219 68.2953 20.0108 68.4828 19.8997 68.6772L19.7608 68.9203C19.6497 69.1147 19.5385 69.3092 19.4274 69.5036L19.3719 69.6008C19.3371 69.6564 19.3094 69.712 19.2747 69.7745C18.9413 70.3578 18.608 70.955 18.2816 71.5453C18.2608 71.58 18.2399 71.6147 18.226 71.6495L17.9969 72.087C17.8094 72.4272 17.6288 72.7675 17.4483 73.1078C17.3163 73.3439 17.1844 73.5939 17.0594 73.837C17.0594 73.837 17.0524 73.8508 17.0455 73.8578C16.9899 73.9689 16.9274 74.08 16.8649 74.205C16.7121 74.4828 16.5663 74.7745 16.4205 75.0661C16.3996 75.1078 16.3788 75.1495 16.358 75.1911C16.358 75.205 16.3441 75.2189 16.3371 75.2258L16.233 75.4272C16.1219 75.6425 16.0108 75.8578 15.8996 76.08L15.8649 76.1495C15.8649 76.1495 15.8302 76.212 15.8163 76.2467C15.6844 76.5175 15.5455 76.7883 15.4135 77.0592C15.3094 77.2675 15.2052 77.4759 15.108 77.6911C15.0246 77.8578 14.9483 78.0175 14.8719 78.1842C14.8719 78.1981 14.858 78.205 14.858 78.2189C14.858 78.2328 14.8441 78.2467 14.8371 78.2606C14.8163 78.2953 14.8024 78.33 14.7816 78.3717C14.7677 78.3925 14.7608 78.4203 14.7469 78.4481C14.6496 78.6564 14.5455 78.8578 14.4483 79.0731C14.2469 79.4967 14.0455 79.9134 13.858 80.3439C13.7955 80.4828 13.733 80.6217 13.6705 80.7606C13.5594 80.9967 13.4552 81.2328 13.3441 81.4759V81.4967C13.3441 81.4967 13.3094 81.5522 13.2955 81.587C13.108 81.9967 12.9205 82.4134 12.7399 82.83C12.7191 82.8786 12.6983 82.9203 12.6774 82.962C12.6774 82.9689 12.6705 82.9828 12.6635 82.9897C12.6566 83.0106 12.6496 83.0245 12.6427 83.0453C12.4135 83.5731 12.1844 84.1008 11.9552 84.6425C11.9552 84.6425 11.9552 84.6425 11.9552 84.6495C11.9552 84.6564 11.9552 84.6634 11.9483 84.6703C11.9413 84.6911 11.9274 84.712 11.9205 84.7259C11.9205 84.7397 11.9066 84.7536 11.9066 84.7675C11.7538 85.1356 11.601 85.4967 11.4552 85.8509C10.9899 86.9828 10.5663 88.0384 10.1844 89.0453C10.1844 89.0523 10.1844 89.0592 10.1774 89.0661C10.1566 89.1286 10.1288 89.205 10.0941 89.2884C10.0941 89.3023 10.0871 89.3092 10.0802 89.3231C9.84408 89.9411 9.61492 90.5592 9.38575 91.1911C9.28853 91.4689 9.19131 91.7398 9.09408 92.0106L9.03853 92.1703C9.0177 92.2259 8.99686 92.2884 8.97603 92.3439C8.96908 92.3648 8.95519 92.4134 8.94825 92.4203C8.94825 92.4273 8.94825 92.4411 8.94131 92.4481L8.73992 93.0036C8.69825 93.1217 8.64964 93.2398 8.61492 93.3578L7.96214 95.2953C7.80242 95.7675 7.65658 96.2467 7.5038 96.7259C7.22603 97.5939 6.95519 98.455 6.70519 99.3231L6.67741 99.4064C6.67741 99.4064 6.67741 99.4203 6.67047 99.4273C6.66353 99.455 6.64964 99.4828 6.64269 99.5106C6.64269 99.5106 6.64269 99.5106 6.64269 99.5175C6.64269 99.5314 6.63575 99.5453 6.6288 99.5592L6.51769 99.9481C6.51769 99.9481 6.51769 99.9481 6.51769 99.955C6.51769 99.9689 6.51075 99.9828 6.5038 99.9967C6.48991 100.038 6.47603 100.08 6.46214 100.122C6.44825 100.163 6.43436 100.198 6.42741 100.24C6.42741 100.254 6.42047 100.268 6.41353 100.288C6.40658 100.316 6.39964 100.344 6.39269 100.365C6.3788 100.406 6.37186 100.448 6.35797 100.483C6.35797 100.497 6.35103 100.511 6.34408 100.524C6.23297 100.906 6.12186 101.288 6.01769 101.677L5.89269 102.136C5.89269 102.136 5.8788 102.177 5.8788 102.198L5.73991 102.698L5.71908 102.781C5.68436 102.906 5.64964 103.031 5.62186 103.149L5.48297 103.684C5.39269 104.011 5.32325 104.351 5.23297 104.684C5.05241 105.399 4.87186 106.122 4.6913 106.851C4.5663 107.365 4.44825 107.879 4.33019 108.399C4.09408 109.448 3.85797 110.518 3.6288 111.643C3.6288 111.643 3.6288 111.649 3.6288 111.656C3.6288 111.656 3.6288 111.663 3.6288 111.67C3.47602 112.434 3.33019 113.191 3.1913 113.941C3.1913 113.962 3.1913 113.976 3.18436 113.997C2.32324 118.629 1.6913 123.337 1.30935 127.969C1.30935 127.969 1.30935 127.969 1.30935 127.976C1.30935 127.976 1.30935 127.99 1.30935 128.004C1.27463 128.441 1.23991 128.865 1.20519 129.288C1.11491 130.497 1.04546 131.622 0.996853 132.691C0.955187 133.469 0.927409 134.24 0.892687 135.087C0.871853 135.851 0.85102 136.622 0.837131 137.42C0.823242 138.184 0.823242 138.948 0.823242 139.74C0.823242 139.747 0.823242 139.761 0.823242 139.768C0.823242 139.768 0.823242 139.781 0.823242 139.788C0.823242 139.83 0.823242 139.879 0.823242 139.92C0.823242 142.212 0.878798 144.559 0.996853 146.893C1.72602 161.247 4.64269 175.365 9.67047 188.851C10.9135 192.177 14.0524 194.413 17.601 194.497C18.5385 194.518 19.476 194.532 20.4135 194.532C34.5802 194.532 48.5733 192.052 61.8164 187.282C50.5941 197.24 41.2538 209.198 34.3163 222.643C32.6913 225.795 33.1497 229.629 35.4761 232.309C44.9066 243.177 55.8997 252.497 68.1636 260.011C69.1844 260.636 70.2122 261.247 71.2469 261.844C72.2816 262.441 73.3164 263.018 74.3441 263.58C75.0316 263.955 75.7192 264.323 76.4483 264.705C77.1219 265.052 77.8025 265.407 78.5455 265.782C79.2469 266.129 79.9414 266.469 80.608 266.795C80.615 266.795 80.6289 266.802 80.6358 266.809C80.6567 266.823 80.6844 266.83 80.7053 266.844C81.24 267.101 81.7955 267.365 82.365 267.636C83.1775 268.011 84.0247 268.4 84.9275 268.802C84.99 268.83 85.0525 268.851 85.115 268.879C89.3372 270.74 93.7261 272.414 98.1497 273.858C98.8581 274.087 99.5664 274.316 100.309 274.552C100.33 274.552 100.351 274.566 100.372 274.573C100.372 274.573 100.379 274.573 100.386 274.573C100.393 274.573 100.4 274.573 100.407 274.573C101.511 274.914 102.573 275.226 103.629 275.518C104.094 275.65 104.566 275.782 105.032 275.907C105.816 276.122 106.594 276.323 107.365 276.518C107.684 276.601 107.997 276.691 108.323 276.768L108.803 276.886C108.886 276.907 108.969 276.927 109.046 276.948L109.171 276.976C109.171 276.976 109.226 276.99 109.247 276.997L109.754 277.115C109.754 277.115 109.789 277.122 109.803 277.129L110.282 277.24C110.678 277.337 111.066 277.427 111.455 277.511H111.469C111.476 277.511 111.49 277.511 111.504 277.518C111.601 277.539 111.712 277.566 111.823 277.587C111.879 277.601 111.934 277.608 111.997 277.622C112.011 277.622 112.025 277.622 112.039 277.629L112.164 277.657L112.483 277.726C112.483 277.726 112.525 277.733 112.546 277.74C112.559 277.74 112.573 277.74 112.587 277.747L112.789 277.789C113.289 277.893 113.789 277.997 114.289 278.101C115.122 278.268 115.962 278.434 116.823 278.587L118.823 278.941C118.955 278.962 119.08 278.983 119.212 279.004L119.796 279.094H119.803C119.803 279.094 119.809 279.094 119.816 279.094C119.83 279.094 119.837 279.094 119.858 279.094C119.858 279.094 119.858 279.094 119.865 279.094C119.872 279.094 119.879 279.094 119.886 279.094C119.886 279.094 119.893 279.094 119.9 279.094H119.928C119.928 279.094 119.983 279.108 120.011 279.115L120.198 279.143C120.497 279.191 120.796 279.24 121.115 279.289C121.74 279.386 122.379 279.476 123.011 279.559C123.073 279.573 123.143 279.573 123.205 279.587C123.226 279.587 123.254 279.587 123.275 279.594C123.323 279.601 123.379 279.608 123.428 279.615C123.455 279.615 123.476 279.622 123.504 279.629L123.601 279.643C123.601 279.643 123.622 279.643 123.629 279.643L124.407 279.74C124.747 279.782 125.094 279.83 125.4 279.865C125.4 279.865 125.4 279.865 125.407 279.865C125.414 279.865 125.428 279.865 125.434 279.865C125.441 279.865 125.448 279.865 125.455 279.865C126.344 279.976 127.226 280.073 128.087 280.15C128.094 280.15 128.108 280.15 128.115 280.15C128.643 280.198 129.164 280.254 129.684 280.295C129.691 280.295 129.698 280.295 129.705 280.295H129.719C129.914 280.316 130.115 280.33 130.316 280.351C130.323 280.351 130.337 280.351 130.344 280.351C130.511 280.372 130.684 280.379 130.858 280.393C130.879 280.393 130.9 280.393 130.921 280.393C130.928 280.393 130.934 280.393 130.941 280.393C130.955 280.393 130.969 280.393 130.983 280.393C131.011 280.393 131.046 280.393 131.08 280.393C131.455 280.42 131.83 280.448 132.205 280.476C132.212 280.476 132.226 280.476 132.233 280.476C132.768 280.518 133.309 280.545 133.844 280.58C133.934 280.58 134.032 280.594 134.122 280.601C134.136 280.601 134.157 280.601 134.171 280.601C134.184 280.601 134.198 280.601 134.205 280.601C134.212 280.601 134.226 280.601 134.233 280.601C134.434 280.615 134.643 280.622 134.844 280.629C135.323 280.657 135.796 280.684 136.275 280.698C136.316 280.698 136.358 280.698 136.393 280.698C136.4 280.698 136.414 280.698 136.421 280.698C136.74 280.712 137.059 280.726 137.379 280.74C137.407 280.74 137.434 280.74 137.462 280.74C137.462 280.74 137.462 280.74 137.469 280.74C137.803 280.754 138.136 280.761 138.448 280.768C138.448 280.768 138.462 280.768 138.469 280.768C138.497 280.768 138.532 280.768 138.559 280.768C138.559 280.768 138.559 280.768 138.566 280.768C138.99 280.782 139.414 280.795 139.837 280.795C139.969 280.795 140.108 280.795 140.24 280.795C140.719 280.802 141.198 280.816 141.671 280.816C141.823 280.816 141.969 280.816 142.122 280.816C142.191 280.816 142.268 280.816 142.337 280.816C142.469 280.816 142.608 280.816 142.74 280.816C143.122 280.816 143.511 280.816 143.893 280.802H144.191C144.372 280.802 144.546 280.802 144.712 280.789C144.837 280.789 144.969 280.789 145.094 280.789H145.316C145.386 280.789 145.462 280.789 145.532 280.782H145.837C145.907 280.768 145.976 280.768 146.046 280.768C146.122 280.768 146.198 280.768 146.275 280.761C146.351 280.761 146.421 280.761 146.497 280.754C146.719 280.754 146.948 280.74 147.171 280.733H147.309C147.941 280.705 148.573 280.684 149.205 280.65C149.358 280.65 149.504 280.636 149.657 280.629C150.226 280.601 150.789 280.566 151.351 280.532L151.671 280.511C151.671 280.511 151.719 280.511 151.747 280.511C152.629 280.448 153.511 280.386 154.4 280.302C154.962 280.254 155.525 280.198 156.087 280.143C156.372 280.115 156.657 280.087 156.934 280.059C157.032 280.045 157.136 280.039 157.24 280.032C157.407 280.018 157.566 279.997 157.733 279.976C157.83 279.962 157.935 279.955 158.039 279.941C158.101 279.934 158.157 279.927 158.219 279.92C158.289 279.914 158.358 279.907 158.428 279.9C158.441 279.9 158.462 279.9 158.476 279.9C158.601 279.886 158.712 279.872 158.83 279.858C158.851 279.858 158.879 279.858 158.9 279.851L159.261 279.809C159.691 279.754 160.122 279.705 160.546 279.65C160.775 279.622 160.997 279.594 161.219 279.559C161.525 279.518 161.837 279.476 162.143 279.427C162.344 279.4 162.553 279.372 162.768 279.337C163.039 279.302 163.303 279.261 163.587 279.212C163.615 279.212 163.65 279.205 163.678 279.198C163.858 279.17 164.046 279.143 164.205 279.115C164.622 279.045 165.053 278.976 165.476 278.907C165.712 278.872 165.941 278.83 166.178 278.789L166.365 278.754C166.365 278.754 166.428 278.74 166.441 278.74C166.705 278.691 166.969 278.65 167.226 278.601C167.608 278.539 167.983 278.469 168.365 278.386C168.754 278.316 169.136 278.233 169.518 278.164C169.747 278.122 169.976 278.073 170.205 278.032C170.414 277.99 170.622 277.948 170.83 277.9C171.518 277.761 172.212 277.608 172.9 277.448C172.941 277.441 172.983 277.427 173.018 277.421C173.018 277.421 173.032 277.421 173.039 277.421C173.087 277.414 173.129 277.4 173.178 277.386C173.358 277.344 173.539 277.302 173.719 277.261C173.74 277.261 173.754 277.254 173.775 277.247C173.796 277.247 173.816 277.24 173.837 277.233C173.941 277.212 174.046 277.184 174.143 277.164C174.414 277.101 174.678 277.039 174.948 276.969C174.997 276.955 175.046 276.948 175.094 276.934C175.115 276.934 175.136 276.927 175.15 276.92C175.219 276.907 175.289 276.886 175.358 276.872C175.407 276.858 175.462 276.851 175.504 276.837C175.518 276.837 175.539 276.83 175.553 276.823C175.664 276.795 175.775 276.768 175.886 276.74C175.907 276.74 175.928 276.733 175.948 276.726C176.476 276.601 176.997 276.462 177.518 276.33C177.518 276.33 177.518 276.33 177.525 276.33C177.664 276.295 177.796 276.261 177.935 276.226H177.9C177.976 276.212 178.06 276.198 178.136 276.17C178.462 276.087 178.789 275.997 179.115 275.9C179.178 275.879 179.24 275.865 179.303 275.851L180.178 275.608C180.178 275.608 180.226 275.594 180.254 275.587C180.886 275.407 181.518 275.226 182.15 275.039C182.268 275.004 182.4 274.962 182.553 274.914C183.282 274.698 184.018 274.469 184.74 274.233C185.511 273.99 186.275 273.74 186.997 273.497C187.671 273.275 188.351 273.039 189.004 272.809L189.671 272.573C190.33 272.337 190.997 272.094 191.657 271.837C192.115 271.67 192.573 271.49 193.025 271.309C193.115 271.275 193.212 271.24 193.303 271.205C193.539 271.115 193.775 271.025 194.011 270.927C194.122 270.886 194.233 270.837 194.344 270.795C194.407 270.768 194.469 270.747 194.539 270.719C194.837 270.601 195.143 270.476 195.448 270.351C196.379 269.969 197.358 269.552 198.421 269.094C199.018 268.837 199.608 268.573 200.198 268.302C200.518 268.164 200.83 268.018 201.143 267.872C201.226 267.837 201.316 267.795 201.4 267.754C201.414 267.747 201.428 267.74 201.441 267.733C201.976 267.49 202.511 267.233 203.046 266.976C203.671 266.677 204.282 266.372 204.907 266.066C204.962 266.039 205.011 266.018 205.066 265.99C205.129 265.962 205.191 265.927 205.261 265.893C205.323 265.858 205.393 265.83 205.455 265.795C205.99 265.532 206.518 265.254 207.046 264.983C207.115 264.948 207.178 264.914 207.24 264.879C207.553 264.719 207.865 264.552 208.185 264.379C209.428 263.733 210.712 263.018 212.094 262.226C212.775 261.837 213.455 261.441 214.136 261.039C214.379 260.893 214.622 260.747 214.872 260.594C215.636 260.129 216.448 259.629 217.33 259.073L217.386 259.039C217.553 258.934 217.719 258.837 217.893 258.726C230.025 251.011 240.865 241.532 250.101 230.566C252.393 227.844 252.796 223.997 251.108 220.865C250.219 219.212 249.379 217.719 248.532 216.295C241.657 204.712 233.15 194.684 223.49 186.309C235.205 189.92 247.414 191.775 259.705 191.775C262.442 191.775 265.178 191.684 267.914 191.497C271.4 191.261 274.407 188.962 275.539 185.663C280.261 171.948 282.851 157.663 283.24 143.205C283.247 142.865 283.247 142.525 283.254 142.177C283.254 141.809 283.268 141.434 283.275 141.045C283.275 140.948 283.275 140.851 283.275 140.761H283.289ZM235.935 58.7397C236.24 59.0939 236.546 59.4481 236.844 59.8022C236.865 59.83 236.893 59.8578 236.914 59.8856C237.317 60.3647 237.719 60.8508 238.108 61.3369C238.157 61.3925 238.205 61.4619 238.261 61.5244C238.275 61.5383 238.289 61.5522 238.296 61.5731C238.601 61.9481 238.893 62.3161 239.178 62.6703C239.671 63.3022 240.164 63.9342 240.65 64.5731C240.921 64.9203 241.178 65.2744 241.435 65.6286C241.435 65.6286 241.442 65.6356 241.442 65.6425L241.497 65.712C241.705 65.9897 241.914 66.2675 242.115 66.5592C242.164 66.6286 242.212 66.6981 242.268 66.7675C242.303 66.8231 242.344 66.8717 242.386 66.9272C242.636 67.2606 242.872 67.6008 243.115 67.9481L243.344 68.2675C243.344 68.2675 243.351 68.2814 243.358 68.2814L243.435 68.3925C243.587 68.6147 243.747 68.837 243.9 69.0592C243.948 69.1286 243.997 69.1981 244.046 69.2606C244.073 69.3022 244.101 69.3439 244.136 69.3925C244.164 69.4342 244.192 69.4689 244.219 69.5106L244.337 69.6842C244.386 69.7606 244.442 69.8439 244.49 69.9203C244.657 70.1633 244.823 70.4064 244.976 70.6495C245.053 70.7675 245.129 70.8786 245.212 70.9967C245.212 70.9967 245.219 71.0106 245.226 71.0175C245.268 71.08 245.303 71.1425 245.344 71.1981C245.539 71.4897 245.74 71.7883 245.935 72.1008L246.247 72.5939C246.289 72.6564 246.33 72.7258 246.372 72.7883C246.4 72.83 246.428 72.8786 246.455 72.9203C246.511 73.0175 246.587 73.1356 246.65 73.2328L246.747 73.3786C246.817 73.4897 246.879 73.6008 246.955 73.705C246.983 73.7536 247.011 73.7953 247.046 73.8439C247.171 74.0383 247.289 74.2259 247.407 74.4203C247.421 74.4411 247.428 74.455 247.435 74.4758C247.469 74.5383 247.511 74.6008 247.546 74.6633C247.879 75.205 248.212 75.7536 248.539 76.2953C248.83 76.7814 249.115 77.2745 249.4 77.7675C249.4 77.7814 249.414 77.7883 249.421 77.8022C249.469 77.8925 249.525 77.9897 249.58 78.08L249.594 78.1078C249.719 78.3161 249.83 78.5175 249.942 78.7259C249.969 78.7745 249.997 78.83 250.032 78.8856C250.073 78.962 250.115 79.0314 250.157 79.1078C250.317 79.3856 250.476 79.6634 250.622 79.9411C250.664 80.0106 250.705 80.0939 250.747 80.1703C250.761 80.1981 250.782 80.2328 250.796 80.2606C250.837 80.3439 250.886 80.4203 250.921 80.4897C250.983 80.6217 251.053 80.7467 251.122 80.8717C251.143 80.9064 251.164 80.9481 251.185 80.9897C251.31 81.212 251.428 81.4342 251.546 81.6564L251.629 81.8092C251.629 81.8092 251.65 81.8578 251.664 81.8786C251.768 82.08 251.872 82.2745 251.976 82.4759C252.018 82.5592 252.06 82.6425 252.108 82.7259C252.108 82.7259 252.108 82.7328 252.115 82.7397L252.185 82.8856C252.185 82.8856 252.219 82.9481 252.233 82.9759C252.393 83.2745 252.546 83.5731 252.692 83.8786C252.712 83.9272 252.74 83.9759 252.761 84.0245C252.824 84.1495 252.893 84.2745 252.955 84.4064C252.976 84.4481 252.997 84.4897 253.018 84.5314C253.275 85.0522 253.532 85.5661 253.782 86.0939L253.803 86.1286C253.803 86.1286 253.803 86.1425 253.81 86.1495C253.865 86.2745 253.921 86.3925 253.983 86.5106C254.053 86.6495 254.122 86.7884 254.185 86.9272C254.226 87.0245 254.268 87.1147 254.317 87.212C254.407 87.4064 254.497 87.6009 254.587 87.7953C254.664 87.962 254.74 88.1286 254.824 88.2953C254.817 88.2745 254.81 88.2606 254.803 88.2467C254.789 88.2189 254.775 88.1981 254.775 88.1981C254.803 88.2536 254.823 88.3092 254.851 88.3717C255.004 88.6911 255.143 89.0175 255.282 89.337C255.31 89.4064 255.344 89.4759 255.379 89.5453C255.497 89.7953 255.601 90.0384 255.705 90.2814C255.705 90.2884 255.712 90.3023 255.719 90.3092C255.719 90.3161 255.726 90.33 255.733 90.337C255.837 90.58 255.942 90.83 256.046 91.08C256.219 91.4828 256.386 91.8786 256.553 92.2814C256.594 92.3856 256.629 92.4828 256.678 92.587C256.928 93.1703 257.157 93.7467 257.386 94.337C257.414 94.3995 257.435 94.4689 257.462 94.5314C257.462 94.5314 257.462 94.5314 257.462 94.5384C257.476 94.5662 257.483 94.5939 257.497 94.6286C257.546 94.7536 257.587 94.8717 257.636 94.9967C249.421 94.3648 241.768 89.8092 237.365 82.3925C233.004 75.0453 232.636 66.2189 235.928 58.7397H235.935ZM214.914 39.3439C215.726 39.9342 216.56 40.5591 217.421 41.2189C217.997 41.6633 218.587 42.1216 219.205 42.6078C219.421 42.7744 219.636 42.955 219.851 43.1286L220.067 43.3022C220.067 43.3022 220.122 43.3508 220.157 43.3717C220.573 43.705 220.997 44.0522 221.407 44.3994L221.476 44.455C221.74 44.6703 222.004 44.8855 222.254 45.1078C222.289 45.1355 222.317 45.1633 222.351 45.1911C222.622 45.4203 222.9 45.6633 223.171 45.8994C214.525 59.4342 213.99 77.0106 222.442 91.2467C230.386 104.629 244.657 112.427 259.615 112.427C260.712 112.427 261.81 112.379 262.914 112.295C262.914 112.316 262.921 112.337 262.928 112.358C262.969 112.545 263.018 112.74 263.06 112.927C263.06 112.934 263.06 112.941 263.06 112.955C263.067 112.99 263.073 113.031 263.08 113.066C263.185 113.538 263.282 113.99 263.372 114.441C263.574 115.427 263.761 116.379 263.935 117.309C264.067 118.011 264.178 118.712 264.303 119.434C264.303 119.462 264.31 119.49 264.317 119.525C264.386 119.927 264.448 120.337 264.511 120.747C264.587 121.268 264.671 121.802 264.747 122.351C264.81 122.781 264.865 123.212 264.921 123.656C265.011 124.358 265.094 125.073 265.178 125.781C265.33 127.129 265.462 128.552 265.573 129.976C265.629 130.698 265.678 131.413 265.719 132.136C265.761 132.823 265.796 133.518 265.824 134.205C265.824 134.219 265.824 134.233 265.824 134.247C265.837 134.663 265.851 135.066 265.865 135.448C265.865 135.462 265.865 135.476 265.865 135.49C240.469 137.879 215.587 125.455 202.351 103.163C189.226 81.0661 190.129 53.4272 204.115 32.323C204.372 32.4758 204.636 32.6216 204.9 32.7814C205.046 32.8647 205.192 32.948 205.337 33.0383C205.747 33.2814 206.157 33.5314 206.573 33.7883C206.629 33.823 206.685 33.8508 206.74 33.8855C207.08 34.0939 207.421 34.3022 207.761 34.5175C207.789 34.5314 207.816 34.5522 207.844 34.5661C208.198 34.7814 208.553 35.0036 208.9 35.2328C208.942 35.2605 208.976 35.2814 209.018 35.3091C209.448 35.58 209.872 35.8578 210.289 36.1355C210.323 36.1564 210.358 36.1841 210.393 36.205C211.587 36.9897 212.671 37.7328 213.733 38.4897L214.921 39.3369L214.914 39.3439ZM57.8094 48.6425C58.233 48.2467 58.6636 47.8508 59.1289 47.4411L59.5594 47.0592C60.0108 46.6564 60.4691 46.2536 60.9275 45.8647C60.9552 45.8369 60.99 45.8092 61.0177 45.7814C61.3719 45.4758 61.7261 45.1703 62.0872 44.8717C62.1497 44.823 62.2052 44.7744 62.2677 44.7189C62.3858 44.6147 62.5039 44.5105 62.6289 44.4133C62.7191 44.3369 62.8094 44.2605 62.8997 44.1842L62.9414 44.1494C62.9414 44.1494 62.983 44.1147 63.0039 44.0939C63.4344 43.7397 63.865 43.3925 64.3233 43.0244C65.2539 42.2744 66.2122 41.5244 67.3164 40.698C67.5177 40.5453 67.7122 40.3925 67.9205 40.2467C68.0455 40.1564 68.1775 40.0591 68.3025 39.9619C68.6844 39.6772 69.0664 39.3994 69.4622 39.1147L69.5316 39.0661C70.0733 38.6703 70.6219 38.2883 71.1775 37.8994C71.2539 37.8508 71.3233 37.8022 71.3997 37.7466C71.7955 37.4689 72.1983 37.198 72.6011 36.9272C72.7261 36.8508 72.8441 36.7675 72.9622 36.6841C73.1636 36.5453 73.3719 36.4133 73.5803 36.2744C73.6219 36.2466 73.6636 36.2189 73.7053 36.1911C73.983 36.0036 74.2747 35.8091 74.5733 35.6216C74.6497 35.573 74.733 35.5175 74.8094 35.4689C75.0386 35.323 75.2747 35.1703 75.5178 35.0175C75.5594 34.9897 75.6011 34.9689 75.6358 34.9411C76.2817 35.9133 76.9067 36.8994 77.4969 37.8994C86.5803 53.1981 89.1636 71.1147 84.7678 88.3509C80.3719 105.587 69.5316 120.087 54.233 129.17C43.1358 135.761 30.7677 138.92 18.0871 138.483C18.0871 138.295 18.0871 138.108 18.0871 137.92C18.0871 137.844 18.0871 137.768 18.0871 137.691C18.101 136.976 18.1219 136.261 18.1358 135.608C18.1635 134.913 18.1913 134.226 18.226 133.538C18.226 133.525 18.226 133.511 18.226 133.49C18.2885 132.247 18.3788 130.893 18.4969 129.358C18.5316 128.92 18.5802 128.483 18.6219 128.045C18.6774 127.455 18.726 126.872 18.7955 126.281C18.8024 126.212 18.8163 126.136 18.8233 126.066C18.9274 125.108 19.0455 124.15 19.1705 123.198C19.4483 121.143 19.7747 119.087 20.1497 117.045C20.2677 116.399 20.3927 115.768 20.5177 115.136C28.1358 115.087 35.6566 113.025 42.2886 109.087C52.2191 103.191 59.2608 93.7745 62.115 82.587C64.9691 71.3925 63.2886 59.7606 57.3927 49.83C57.2886 49.6564 57.1705 49.4828 57.0664 49.3092C57.2955 49.0939 57.5316 48.8717 57.7816 48.6425H57.8094ZM33.4552 94.1634C30.9969 95.6217 28.3372 96.6495 25.5802 97.2328C25.6844 96.9342 25.7955 96.6425 25.9066 96.3439C26.0316 96.0036 26.1566 95.6564 26.2816 95.3161C26.3024 95.2606 26.3302 95.205 26.351 95.1495C26.5663 94.587 26.7816 94.0314 27.0108 93.4689C27.2955 92.7467 27.5941 92.0384 27.8997 91.3092C28.0872 90.8717 28.2677 90.4411 28.4552 90.0106C28.4552 90.0106 28.4552 89.9967 28.4622 89.9898C28.5038 89.9064 28.5385 89.8231 28.5733 89.7398C28.6219 89.6286 28.6705 89.5175 28.7191 89.4134C28.7955 89.2398 28.8719 89.0661 28.9483 88.8925C28.9969 88.7814 29.0455 88.6703 29.101 88.5522L29.1358 88.4689C29.2052 88.3092 29.2747 88.1495 29.351 87.9967C29.3788 87.9411 29.4066 87.8786 29.4274 87.8231L29.5038 87.6495C29.5455 87.5661 29.5802 87.4897 29.6149 87.4064C29.6149 87.3925 29.6219 87.3856 29.6288 87.3786L29.6566 87.3231C29.7122 87.212 29.7608 87.1078 29.8163 86.9967C29.9622 86.6772 30.108 86.3647 30.2608 86.0522C30.3163 85.9411 30.3719 85.8231 30.4205 85.705C30.4552 85.6425 30.476 85.58 30.5108 85.5106L30.6635 85.205C30.7052 85.1217 30.7469 85.0314 30.7885 84.9411C30.8094 84.8925 30.8302 84.8509 30.858 84.8092C30.8927 84.7328 30.9344 84.6634 30.9691 84.587C30.983 84.5592 30.9969 84.5314 31.0108 84.5036C31.0455 84.4342 31.0872 84.3578 31.1219 84.2884C31.2955 83.9342 31.4691 83.5939 31.6497 83.2467C31.6774 83.1981 31.7052 83.1425 31.733 83.087C31.7399 83.0661 31.7538 83.0522 31.7608 83.0314C31.7608 83.0314 31.7677 83.0036 31.7747 82.9967C31.7955 82.962 31.8163 82.9203 31.8302 82.8856C31.9274 82.6981 32.0247 82.5036 32.1219 82.3231C32.1774 82.2189 32.2399 82.0939 32.2955 81.9897L32.3372 81.9064C32.3858 81.8231 32.4274 81.7397 32.4691 81.6495C32.5038 81.58 32.5386 81.5106 32.5802 81.4481C32.6288 81.3647 32.6774 81.2745 32.7191 81.1911C32.8649 80.9134 33.0108 80.6356 33.1636 80.3647C33.1913 80.3161 33.2191 80.2606 33.2469 80.212L33.4761 79.7814C33.7538 79.2814 34.0316 78.7814 34.3233 78.2675L34.8927 77.2745C34.9969 77.0939 35.1011 76.9133 35.2052 76.7397C35.2261 76.705 35.2469 76.6703 35.2608 76.6425C35.3024 76.5731 35.3511 76.4967 35.3927 76.4272C35.7261 75.8508 36.0802 75.2745 36.4413 74.6911C37.1149 73.587 37.8024 72.5036 38.4761 71.4828L38.5316 71.3995L39.1219 70.5106C39.1497 70.4758 39.1705 70.4411 39.1913 70.3995C39.4066 70.08 39.6149 69.7606 39.8372 69.4481C39.858 69.4203 39.8788 69.3925 39.8858 69.3786C39.9136 69.337 39.9413 69.3022 39.9691 69.2606C40.2191 68.8925 40.4761 68.5314 40.733 68.1703L40.9899 67.8022C41.1288 67.6008 41.2747 67.3994 41.4205 67.205C41.4483 67.1633 41.4761 67.1286 41.5038 67.087C41.7469 66.7397 41.9969 66.4064 42.2469 66.0592C42.2886 66.0036 42.3233 65.955 42.3649 65.8995C42.5177 65.6911 42.6774 65.4828 42.8302 65.2744C43.0663 64.9619 43.3025 64.6494 43.5525 64.3231L43.7469 64.0661C43.7886 64.0175 43.8233 63.9689 43.865 63.9133C44.0941 63.6217 44.3233 63.3231 44.5525 63.0314C44.5525 63.0314 44.5525 63.0314 44.5525 63.0244C48.7538 74.4897 44.3302 87.712 33.4552 94.1703V94.1634ZM19.1566 155.851C19.4969 155.851 19.8372 155.872 20.1774 155.872C35.1983 155.872 50.1011 151.83 63.1011 144.108C82.3858 132.656 96.0594 114.379 101.601 92.6495C107.143 70.9203 103.886 48.33 92.4344 29.0452C91.9622 28.2536 91.4692 27.4689 90.9692 26.6841C97.5803 23.6841 104.434 21.2675 111.462 19.4758C125.205 43.3578 129.018 71.1495 122.198 97.8995C115.254 125.136 98.122 148.038 73.9553 162.386C58.6914 171.448 41.49 176.483 23.8788 177.08C21.6705 170.15 20.101 163.045 19.1497 155.851H19.1566ZM158.851 262.372C158.789 262.379 158.705 262.393 158.643 262.4C158.553 262.414 158.462 262.42 158.365 262.434C158.33 262.434 158.296 262.441 158.261 262.448C157.886 262.497 157.511 262.545 157.136 262.587L156.719 262.636C156.719 262.636 156.671 262.636 156.643 262.643H156.615C156.566 262.65 156.525 262.657 156.476 262.664C156.379 262.67 156.282 262.684 156.226 262.691C155.955 262.726 155.685 262.754 155.414 262.782C155.365 262.782 155.31 262.795 155.261 262.795C154.997 262.823 154.74 262.851 154.469 262.879C154.435 262.879 154.4 262.879 154.365 262.886C153.858 262.934 153.344 262.983 152.851 263.032C152.08 263.101 151.296 263.157 150.518 263.212L150.226 263.233C149.719 263.268 149.205 263.295 148.698 263.323C148.671 263.323 148.65 263.323 148.622 263.323C148.525 263.323 148.435 263.33 148.337 263.337C147.803 263.372 147.268 263.393 146.698 263.407H146.469C146.344 263.42 146.226 263.427 146.101 263.427C146.025 263.427 145.948 263.427 145.879 263.427C145.372 263.448 144.858 263.455 144.344 263.462C144.282 263.462 144.212 263.462 144.15 263.462C144.122 263.462 144.094 263.462 144.066 263.462H143.65C143.393 263.469 143.129 263.476 142.872 263.476C142.775 263.476 142.678 263.476 142.573 263.476C142.046 263.476 141.518 263.476 140.983 263.469C140.941 263.469 140.893 263.469 140.851 263.469C140.365 263.469 139.872 263.462 139.386 263.441H139.33C139.261 263.441 139.198 263.441 139.129 263.441H139.053C139.018 263.441 138.976 263.441 138.934 263.441H138.907C138.907 263.441 138.879 263.441 138.865 263.441C138.775 263.441 138.684 263.434 138.601 263.434C138.226 263.427 137.858 263.42 137.483 263.4C137.407 263.4 137.323 263.4 137.247 263.393C137.219 263.393 137.184 263.393 137.157 263.393C137.122 263.393 137.08 263.393 137.046 263.393C137.018 263.393 136.997 263.393 136.969 263.393C136.553 263.379 136.143 263.358 135.726 263.33C135.643 263.33 135.58 263.323 135.518 263.316C135.191 263.302 134.858 263.282 134.532 263.261C134.497 263.261 134.462 263.261 134.428 263.254C134.358 263.254 134.289 263.247 134.226 263.24C133.768 263.212 133.303 263.184 132.844 263.15C132.796 263.15 132.74 263.143 132.691 263.136C132.678 263.136 132.664 263.136 132.65 263.136C132.393 263.115 132.136 263.094 131.879 263.073C131.747 263.059 131.615 263.052 131.49 263.039C131.393 263.032 131.296 263.025 131.198 263.018C131.178 263.018 131.157 263.018 131.129 263.018C130.664 262.976 130.205 262.934 129.768 262.893C129.08 262.823 128.386 262.747 127.684 262.664C126.997 262.587 126.303 262.49 125.615 262.4C125.573 262.4 125.525 262.386 125.483 262.386C125.184 262.344 124.879 262.295 124.58 262.254C124.212 262.198 123.844 262.15 123.483 262.087C125.309 259.948 127.483 258.101 129.941 256.643C135.886 253.115 142.851 252.108 149.546 253.816C154.678 255.122 159.185 257.907 162.601 261.809C162.462 261.83 162.316 261.858 162.178 261.879C162.15 261.879 162.122 261.886 162.087 261.893C161.879 261.927 161.664 261.962 161.441 261.997L160.962 262.073C160.747 262.108 160.532 262.143 160.31 262.17C160.261 262.17 160.212 262.184 160.164 262.191C160.073 262.205 159.983 262.219 159.893 262.226C159.789 262.24 159.678 262.254 159.573 262.268C159.337 262.302 159.101 262.337 158.865 262.372H158.851ZM197.608 250.316C197.532 250.351 197.462 250.386 197.393 250.427C196.782 250.733 196.178 251.032 195.566 251.323C195.539 251.337 195.518 251.351 195.49 251.358C195.06 251.566 194.636 251.768 194.212 251.962C194.06 252.025 193.914 252.094 193.761 252.17C193.539 252.282 193.31 252.379 193.073 252.49C193.046 252.504 193.018 252.518 192.99 252.525C192.504 252.747 192.025 252.962 191.511 253.184C190.226 253.747 189.094 254.219 188.066 254.629C188.025 254.643 187.983 254.664 187.941 254.677L187.907 254.691C187.796 254.733 187.685 254.775 187.573 254.823C187.497 254.851 187.421 254.886 187.379 254.907C187.226 254.962 187.073 255.018 186.921 255.08C186.49 255.254 186.053 255.42 185.615 255.58C185.573 255.594 185.539 255.608 185.497 255.622C184.935 255.837 184.358 256.045 183.803 256.247L183.212 256.455C182.664 256.65 182.108 256.844 181.504 257.045C181.212 257.143 180.921 257.233 180.629 257.33C180.525 257.157 180.435 256.976 180.33 256.802C174.435 246.872 165.018 239.83 153.83 236.976C142.636 234.122 131.004 235.802 121.073 241.698C114.441 245.636 109.039 251.254 105.344 257.92C104.726 257.726 104.108 257.532 103.483 257.323C103.171 257.219 102.865 257.115 102.559 257.011C101.879 256.782 101.205 256.559 100.525 256.316C100.4 256.275 100.275 256.226 100.15 256.177C97.365 255.177 94.615 254.087 91.9483 252.914C91.9275 252.907 91.9067 252.9 91.8858 252.886C90.4761 252.254 89.24 251.684 88.1081 251.143C87.4761 250.837 86.8442 250.525 86.2747 250.247C85.6358 249.92 84.99 249.594 84.3997 249.282C84.1497 249.15 83.9067 249.018 83.6636 248.886C89.3442 237.539 98.0386 228.198 109.136 221.615C140.712 202.865 181.657 213.302 200.407 244.879C200.997 245.879 201.566 246.893 202.115 247.927C202.06 247.955 202.011 247.983 201.955 248.018C201.719 248.15 201.49 248.275 201.261 248.4C201.178 248.448 201.087 248.497 201.004 248.539C200.691 248.705 200.386 248.872 200.08 249.032C200.039 249.052 199.997 249.08 199.948 249.101C199.726 249.226 199.504 249.344 199.282 249.455C199.157 249.518 199.032 249.58 198.914 249.65C198.476 249.879 198.046 250.101 197.608 250.316ZM232.844 223.893C227.907 229.212 222.497 234.066 216.705 238.434C216.261 237.622 215.81 236.809 215.337 236.018C191.698 196.205 140.08 183.052 100.275 206.691C86.9761 214.587 76.108 226.073 68.9205 239.65C63.0594 235.372 57.5802 230.594 52.5525 225.344C61.5108 210.17 74.1567 197.476 89.4206 188.413C138.886 159.045 202.893 175.004 232.851 223.9L232.844 223.893ZM101.761 163.497C119.934 147.386 132.893 126.24 139.025 102.191C139.455 100.49 139.851 98.7814 140.205 97.0731C143.032 109.08 147.691 120.781 154.219 131.768C160.983 143.156 169.483 153.288 179.351 161.844C154.462 154.156 127.219 154.358 101.761 163.497ZM211.428 162.733C193.886 153.719 179.268 139.948 169.15 122.9C149.941 90.5523 149.441 50.9967 167.49 18.33C174.657 19.8369 181.65 21.9758 188.414 24.705C171.997 51.0453 171.289 84.8647 187.428 112.045C202.747 137.844 230.455 153.156 259.671 153.156C261.504 153.156 263.344 153.087 265.185 152.969C264.393 160.219 262.976 167.386 260.921 174.406C243.747 174.608 226.768 170.608 211.435 162.726L211.428 162.733Z" fill="white"/>
</svg>
