<svg version="1.1" xmlns="http://www.w3.org/2000/svg" viewBox="0 0 1873.6722879272147 366.6446090149784" width="1873.6722879272147" height="366.6446090149784">
  <!-- svg-source:excalidraw -->
  
  <defs>
    <style class="style-fonts">
      @font-face {
        font-family: "Virgil";
        src: url("https://excalidraw.com/Virgil.woff2");
      }
      @font-face {
        font-family: "Cascadia";
        src: url("https://excalidraw.com/Cascadia.woff2");
      }
      @font-face {
        font-family: "Assistant";
        src: url("https://excalidraw.com/Assistant-Regular.woff2");
      }
    </style>
    
  </defs>
  <rect x="0" y="0" width="1873.6722879272147" height="366.6446090149784" fill="#ffffff"></rect><g stroke-linecap="round" transform="translate(10 10) rotate(0 393.53334618775807 173.26483557219126)"><path d="M1.45 -1.85 L785.97 -1.46 L786.14 348.33 L-1.04 346.56" stroke="none" stroke-width="0" fill="#ffffff"></path><path d="M0 0 C224.08 2.07, 448.19 1.75, 787.07 0 M0 0 C276.97 -0.29, 554.26 -0.43, 787.07 0 M787.07 0 C787.4 124.48, 786.24 248.21, 787.07 346.53 M787.07 0 C787.81 130.26, 788.18 259.16, 787.07 346.53 M787.07 346.53 C560.1 349.98, 332.22 349.54, 0 346.53 M787.07 346.53 C490.02 347.49, 192 347.32, 0 346.53 M0 346.53 C0.83 222.17, 2.77 100.49, 0 0 M0 346.53 C-0.82 251.86, -0.69 158.85, 0 0" stroke="#1e1e1e" stroke-width="4" fill="none"></path></g><g transform="translate(224.23647118775807 15) rotate(0 179.296875 21.600000000000364)"><text x="179.296875" y="34.762499999999996" font-family="Cascadia, Segoe UI Emoji" font-size="36px" fill="#1e1e1e" text-anchor="middle" style="white-space: pre;" direction="ltr" dominant-baseline="alphabetic">Source (Ethereum)</text></g><g stroke-linecap="round" transform="translate(795.5037075308674 10.114937870597714) rotate(0 534.0842901981737 173.26483557219035)"><path d="M-1.39 1.55 L1067.24 -0.05 L1066.51 347.7 L1.29 347.08" stroke="none" stroke-width="0" fill="#e9ecef"></path><path d="M0 0 C283.2 2.25, 565.91 3.04, 1068.17 0 M0 0 C310.32 -1.99, 620.42 -1.51, 1068.17 0 M1068.17 0 C1067.89 121.34, 1066.05 242.63, 1068.17 346.53 M1068.17 0 C1070.72 95.93, 1070.36 192.01, 1068.17 346.53 M1068.17 346.53 C854.71 349.27, 640.31 350.39, 0 346.53 M1068.17 346.53 C842.65 342.86, 617.94 342.52, 0 346.53 M0 346.53 C0.97 228.27, 3.19 109.82, 0 0 M0 346.53 C0.95 275.24, 0.91 202.78, 0 0" stroke="#1e1e1e" stroke-width="4" fill="none"></path></g><g transform="translate(1065.9161227290406 15.114937870597714) rotate(0 263.671875 21.600000000000364)"><text x="263.671875" y="34.762499999999996" font-family="Cascadia, Segoe UI Emoji" font-size="36px" fill="#1e1e1e" text-anchor="middle" style="white-space: pre;" direction="ltr" dominant-baseline="alphabetic">Desination (Poligon Amoy)</text></g><g stroke-linecap="round" transform="translate(488.0531683741292 129.68185335744602) rotate(0 56.0709344133611 57.5)"><path d="M0.7 0.42 L112.53 -0.88 L111.21 113.93 L-0.46 116.94" stroke="none" stroke-width="0" fill="#ffec99"></path><path d="M0 0 C40.92 -1.79, 85.26 -0.64, 112.14 0 M0 0 C26.44 0.97, 51.82 0.54, 112.14 0 M112.14 0 C113.46 38.55, 114.54 72.25, 112.14 115 M112.14 0 C113.09 37.31, 112.26 77.01, 112.14 115 M112.14 115 C65.91 115.95, 21.65 116.34, 0 115 M112.14 115 C68.49 113.23, 25.47 114.86, 0 115 M0 115 C1.53 85.53, -0.07 56.26, 0 0 M0 115 C-0.95 74.71, 0.1 31.8, 0 0" stroke="#1e1e1e" stroke-width="4" fill="none"></path></g><g transform="translate(494.9053527874903 136.78185335744638) rotate(0 49.21875 50.399999999999636)"><text x="49.21875" y="27.0375" font-family="Cascadia, Segoe UI Emoji" font-size="28px" fill="#1e1e1e" text-anchor="middle" style="white-space: pre;" direction="ltr" dominant-baseline="alphabetic">zrSign</text><text x="49.21875" y="60.6375" font-family="Cascadia, Segoe UI Emoji" font-size="28px" fill="#1e1e1e" text-anchor="middle" style="white-space: pre;" direction="ltr" dominant-baseline="alphabetic">Proxy</text><text x="49.21875" y="94.23750000000001" font-family="Cascadia, Segoe UI Emoji" font-size="28px" fill="#1e1e1e" text-anchor="middle" style="white-space: pre;" direction="ltr" dominant-baseline="alphabetic">OApp</text></g><g stroke-linecap="round" transform="translate(1659.8305707654308 127.46265428448169) rotate(0 78.55579052776011 66.64568531969871)"><path d="M-0.92 1.8 L156.08 0.03 L155.72 134.84 L-0.93 133.24" stroke="none" stroke-width="0" fill="#a5d8ff"></path><path d="M0 0 C59.36 -1.2, 116.89 -1.71, 157.11 0 M0 0 C51.72 0.05, 103.27 0.57, 157.11 0 M157.11 0 C157.99 49.75, 155.47 96.25, 157.11 133.29 M157.11 0 C156.95 48.81, 157.96 98.79, 157.11 133.29 M157.11 133.29 C99.64 131.64, 39.48 135.22, 0 133.29 M157.11 133.29 C98.73 132.91, 39.51 132.89, 0 133.29 M0 133.29 C-1.33 101.32, -2.59 68.11, 0 0 M0 133.29 C0.15 103.69, -1.12 75.21, 0 0" stroke="#1e1e1e" stroke-width="4" fill="none"></path></g><g transform="translate(1689.167611293191 177.30833960418022) rotate(0 49.21875 16.800000000000182)"><text x="49.21875" y="27.0375" font-family="Cascadia, Segoe UI Emoji" font-size="28px" fill="#1e1e1e" text-anchor="middle" style="white-space: pre;" direction="ltr" dominant-baseline="alphabetic">ZrSign</text></g><g stroke-linecap="round" transform="translate(1252.4148427462324 133.57717532380047) rotate(0 56.0709344133611 57.5)"><path d="M1.33 -0.88 L112.36 -0.09 L114.1 116.26 L-1.06 115.08" stroke="none" stroke-width="0" fill="#ffec99"></path><path d="M0 0 C44.31 -0.42, 89.09 -2.84, 112.14 0 M0 0 C35.16 -0.52, 72.56 -1.73, 112.14 0 M112.14 0 C112.23 39.83, 110.53 76.68, 112.14 115 M112.14 0 C112.85 24.82, 113.14 47.02, 112.14 115 M112.14 115 C86.46 113.45, 57.21 113.09, 0 115 M112.14 115 C68.97 115.56, 28.1 115.25, 0 115 M0 115 C-2.55 83.57, -0.67 51.12, 0 0 M0 115 C0.31 86.54, 1.08 55.66, 0 0" stroke="#1e1e1e" stroke-width="4" fill="none"></path></g><g transform="translate(1259.2670271595935 140.67717532380084) rotate(0 49.21875 50.399999999999636)"><text x="49.21875" y="27.0375" font-family="Cascadia, Segoe UI Emoji" font-size="28px" fill="#1e1e1e" text-anchor="middle" style="white-space: pre;" direction="ltr" dominant-baseline="alphabetic">zrSign</text><text x="49.21875" y="60.6375" font-family="Cascadia, Segoe UI Emoji" font-size="28px" fill="#1e1e1e" text-anchor="middle" style="white-space: pre;" direction="ltr" dominant-baseline="alphabetic">Proxy</text><text x="49.21875" y="94.23750000000001" font-family="Cascadia, Segoe UI Emoji" font-size="28px" fill="#1e1e1e" text-anchor="middle" style="white-space: pre;" direction="ltr" dominant-baseline="alphabetic">OApp</text></g><g stroke-linecap="round" transform="translate(92.3861579145032 128.81968390957627) rotate(0 61.536458333333485 57.3828125)"><path d="M57.14 -0.15 C66.06 -1.57, 76.72 1.2, 85.41 4.58 C94.1 7.95, 103.22 13.18, 109.28 20.08 C115.34 26.98, 119.85 37.22, 121.76 46 C123.66 54.79, 123.15 64.46, 120.71 72.79 C118.27 81.11, 113.65 89.5, 107.11 95.95 C100.57 102.4, 90.54 108.46, 81.46 111.48 C72.38 114.5, 62.03 115.34, 52.61 114.07 C43.19 112.79, 32.65 109.28, 24.96 103.85 C17.27 98.42, 10.66 89.53, 6.45 81.5 C2.24 73.47, -0.65 64.44, -0.32 55.65 C0.02 46.85, 3.74 36.41, 8.45 28.72 C13.17 21.04, 18.83 14.22, 27.97 9.53 C37.1 4.84, 56.56 1.98, 63.25 0.61 C69.95 -0.76, 68.32 0.48, 68.13 1.31 M79.54 3.6 C88.53 5.44, 97.79 10.57, 104.78 16.98 C111.76 23.39, 118.54 33.72, 121.44 42.06 C124.33 50.39, 123.98 58.58, 122.13 66.99 C120.29 75.4, 116.46 85.57, 110.36 92.5 C104.26 99.43, 94.13 104.89, 85.52 108.58 C76.92 112.27, 67.9 114.79, 58.74 114.63 C49.58 114.47, 38.87 112.37, 30.57 107.62 C22.28 102.87, 14.27 93.87, 8.96 86.15 C3.65 78.42, -0.61 70.25, -1.3 61.28 C-1.99 52.31, 0.76 40.58, 4.82 32.33 C8.88 24.09, 15.43 17.07, 23.07 11.8 C30.71 6.53, 40.97 2.37, 50.66 0.7 C60.35 -0.97, 76.47 1.33, 81.22 1.79 C85.96 2.25, 79.6 2.57, 79.14 3.45" stroke="none" stroke-width="0" fill="#ffec99"></path><path d="M41.2 4.07 C49.38 0.52, 60.68 0.35, 70.18 1.35 C79.69 2.36, 90.38 5.22, 98.23 10.12 C106.08 15.01, 113.25 22.58, 117.28 30.7 C121.31 38.82, 122.56 49.68, 122.39 58.86 C122.23 68.03, 120.66 78.01, 116.32 85.78 C111.98 93.55, 104.49 100.59, 96.35 105.49 C88.21 110.4, 77.22 114.4, 67.48 115.22 C57.74 116.03, 46.64 113.9, 37.89 110.39 C29.15 106.87, 21.25 100.69, 15.04 94.13 C8.82 87.56, 2.64 79.49, 0.61 71.01 C-1.42 62.52, 0.22 51.84, 2.85 43.2 C5.48 34.56, 9.75 25.98, 16.37 19.15 C22.99 12.31, 37.41 5.03, 42.57 2.19 C47.73 -0.65, 47 1.15, 47.35 2.11 M44.45 2.01 C52.67 -1.27, 63.24 -1.69, 72.48 0.27 C81.72 2.24, 92.43 7.88, 99.89 13.79 C107.36 19.69, 113.3 27.57, 117.27 35.71 C121.25 43.85, 124.48 53.74, 123.72 62.62 C122.96 71.49, 118.03 81.68, 112.72 88.94 C107.41 96.21, 99.93 101.75, 91.86 106.2 C83.79 110.66, 73.76 115.18, 64.29 115.66 C54.82 116.14, 43.67 112.96, 35.05 109.11 C26.42 105.26, 18.46 99.79, 12.53 92.59 C6.59 85.38, 0.93 74.82, -0.57 65.87 C-2.07 56.91, 0.01 47.15, 3.51 38.84 C7.02 30.54, 13.38 21.94, 20.44 16.02 C27.5 10.1, 41.67 5.34, 45.86 3.33 C50.06 1.32, 45.74 3.38, 45.61 3.94" stroke="#1e1e1e" stroke-width="2" fill="none"></path></g><g transform="translate(121.09726927013344 169.32672056727097) rotate(0 32.8125 16.800000000000182)"><text x="32.8125" y="27.0375" font-family="Cascadia, Segoe UI Emoji" font-size="28px" fill="#1e1e1e" text-anchor="middle" style="white-space: pre;" direction="ltr" dominant-baseline="alphabetic">User</text></g><g mask="url(#mask-_kiucPD46wQMUqOWND4s5)" stroke-linecap="round"><g transform="translate(233.1088141516775 186.1569234929084) rotate(0 119.99104818349633 0)"><path d="M0 0 C73.95 -0.65, 147.62 -0.47, 239.98 0 M0 0 C59.54 -2.31, 120.21 -1.24, 239.98 0" stroke="#1e1e1e" stroke-width="2" fill="none"></path></g><g transform="translate(233.1088141516775 186.1569234929084) rotate(0 119.99104818349633 0)"><path d="M216.4 8.3 C224.33 4.19, 231.87 1.87, 239.98 0 M216.4 8.3 C221.82 5.55, 228.63 4.77, 239.98 0" stroke="#1e1e1e" stroke-width="2" fill="none"></path></g><g transform="translate(233.1088141516775 186.1569234929084) rotate(0 119.99104818349633 0)"><path d="M216.58 -8.8 C224.35 -7.68, 231.83 -4.77, 239.98 0 M216.58 -8.8 C222.07 -7.28, 228.84 -3.8, 239.98 0" stroke="#1e1e1e" stroke-width="2" fill="none"></path></g></g><mask id="mask-_kiucPD46wQMUqOWND4s5"><rect x="0" y="0" fill="#fff" width="573.0909105186702" height="286.1569234929084"></rect><rect x="287.4748623351734" y="169.35692349290912" fill="#000" width="131.25" height="33.6" opacity="1"></rect></mask><g transform="translate(287.4748623351734 169.35692349290912) rotate(0 65.62500000000045 16.119662834457813)"><text x="65.625" y="27.0375" font-family="Cascadia, Segoe UI Emoji" font-size="28px" fill="#1e1e1e" text-anchor="middle" style="white-space: pre;" direction="ltr" dominant-baseline="alphabetic">lzSend()</text></g><g mask="url(#mask-FhLzjFw3HR5L2gbxkyj_n)" stroke-linecap="round"><g transform="translate(922.987441396649 187.21812140957445) rotate(0 153.33333333333348 0)"><path d="M0 0 C116.93 1.32, 235.3 2.25, 306.67 0 M0 0 C94.04 -0.77, 189.95 -1.51, 306.67 0" stroke="#1e1e1e" stroke-width="2" fill="none"></path></g><g transform="translate(922.987441396649 187.21812140957445) rotate(0 153.33333333333348 0)"><path d="M283.11 8.36 C291.33 5.32, 301.6 3.41, 306.67 0 M283.11 8.36 C289.57 6.53, 298.58 2.92, 306.67 0" stroke="#1e1e1e" stroke-width="2" fill="none"></path></g><g transform="translate(922.987441396649 187.21812140957445) rotate(0 153.33333333333348 0)"><path d="M283.24 -8.74 C291.52 -5.24, 301.75 -0.59, 306.67 0 M283.24 -8.74 C289.59 -5.29, 298.56 -3.62, 306.67 0" stroke="#1e1e1e" stroke-width="2" fill="none"></path></g></g><mask id="mask-FhLzjFw3HR5L2gbxkyj_n"><rect x="0" y="0" fill="#fff" width="1329.654108063316" height="287.21812140957445"></rect><rect x="986.0863997299812" y="170.41812140957518" fill="#000" width="180.46875" height="33.6" opacity="1"></rect></mask><g transform="translate(986.0863997299812 170.41812140957518) rotate(0 90.23437500000045 17.042034679651806)"><text x="90.234375" y="27.0375" font-family="Cascadia, Segoe UI Emoji" font-size="28px" fill="#1e1e1e" text-anchor="middle" style="white-space: pre;" direction="ltr" dominant-baseline="alphabetic">lzReceive()</text></g><g mask="url(#mask-ReIf832XkS_8rcOn5hwoz)" stroke-linecap="round"><g transform="translate(1379.2692959353371 188.46974901374233) rotate(0 132.92154947916697 0)"><path d="M0 0 C63.71 0.68, 127.3 -0.79, 265.84 0 M0 0 C82.7 -2.04, 163.83 -1.64, 265.84 0" stroke="#1e1e1e" stroke-width="2" fill="none"></path></g><g transform="translate(1379.2692959353371 188.46974901374233) rotate(0 132.92154947916697 0)"><path d="M242.24 8.25 C247.64 7.99, 252.9 4.15, 265.84 0 M242.24 8.25 C250.47 5.05, 256.74 3.02, 265.84 0" stroke="#1e1e1e" stroke-width="2" fill="none"></path></g><g transform="translate(1379.2692959353371 188.46974901374233) rotate(0 132.92154947916697 0)"><path d="M242.46 -8.85 C247.83 -5, 253.04 -4.73, 265.84 0 M242.46 -8.85 C250.7 -6.78, 256.91 -3.54, 265.84 0" stroke="#1e1e1e" stroke-width="2" fill="none"></path></g></g><mask id="mask-ReIf832XkS_8rcOn5hwoz"><rect x="0" y="0" fill="#fff" width="1745.112394893671" height="288.46974901374233"></rect><rect x="1430.1595954145032" y="171.66974901374306" fill="#000" width="164.0625" height="33.6" opacity="1"></rect></mask><g transform="translate(1430.1595954145023 171.66974901374306) rotate(0 82.03125000000091 16.200470686239896)"><text x="82.03125" y="27.0375" font-family="Cascadia, Segoe UI Emoji" font-size="28px" fill="#1e1e1e" text-anchor="middle" style="white-space: pre;" direction="ltr" dominant-baseline="alphabetic">zrKeyReq()</text></g><g stroke-linecap="round" transform="translate(710.5004622299821 132.0266221536258) rotate(0 98.75325520833303 60.04231770833303)"><path d="M-1.15 -1.77 L197.79 -1.43 L197.54 118.81 L-1.84 119.52" stroke="none" stroke-width="0" fill="#1e1e1e"></path><path d="M0 0 C68.44 0.7, 132.98 0.52, 197.51 0 M0 0 C55.96 1.55, 110.89 0.78, 197.51 0 M197.51 0 C197.78 47.06, 196.48 95.85, 197.51 120.08 M197.51 0 C196.76 34.85, 197.32 67.81, 197.51 120.08 M197.51 120.08 C156.24 119.64, 116.2 119.25, 0 120.08 M197.51 120.08 C137.57 120.88, 78.62 120.99, 0 120.08 M0 120.08 C0.93 81.87, 0.56 42.99, 0 0 M0 120.08 C0.32 94.84, -0.34 71.08, 0 0" stroke="#ffffff" stroke-width="2" fill="none"></path></g><g transform="translate(735.4255924383151 175.26893986195864) rotate(0 73.828125 16.800000000000182)"><text x="73.828125" y="27.0375" font-family="Cascadia, Segoe UI Emoji" font-size="28px" fill="#ffffff" text-anchor="middle" style="white-space: pre;" direction="ltr" dominant-baseline="alphabetic">LayerZero</text></g><g stroke-linecap="round"><g transform="translate(613.534316396649 191.7141221536276) rotate(0 41.009114583333485 0)"><path d="M0 0 C23.65 1.89, 44.12 0.19, 82.02 0 M0 0 C17.06 -0.44, 33.77 0.42, 82.02 0" stroke="#1e1e1e" stroke-width="2" fill="none"></path></g><g transform="translate(613.534316396649 191.7141221536276) rotate(0 41.009114583333485 0)"><path d="M58.55 8.62 C66.48 8.26, 71.24 4.25, 82.02 0 M58.55 8.62 C63.62 6.44, 68.36 5.54, 82.02 0" stroke="#1e1e1e" stroke-width="2" fill="none"></path></g><g transform="translate(613.534316396649 191.7141221536276) rotate(0 41.009114583333485 0)"><path d="M58.5 -8.48 C66.5 -4.25, 71.28 -3.68, 82.02 0 M58.5 -8.48 C63.62 -7.17, 68.38 -4.57, 82.02 0" stroke="#1e1e1e" stroke-width="2" fill="none"></path></g></g><mask></mask></svg>